<svg id="Layer_1" data-name="Layer 1" xmlns="http://www.w3.org/2000/svg" viewBox="0 0 398.86 227.92"><path d="M326.5,388.56V616.48H725.36V388.56ZM483.35,578.48l-51-51-10.72,10.71,33,33-7.23,7.23-33-33L403.92,556l15.26,15.27-7.24,7.23-15.26-15.27-15.27,15.27-7.23-7.24,68.72-68.72-10.37-10.38-51.12,51.12L374.18,536l51.12-51.12-10.79-10.79-33.1,33.1L374.18,500l33.1-33.1-33.1-33.09,7.23-7.23,76,75.95-17.75,17.76,51,51Zm35.51-35.77L410,433.8l7.23-7.23L526.09,535.48Zm0-35.64L445.59,433.8l7.23-7.23,73.27,73.27Zm0-35.52L481.11,433.8l7.23-7.23,37.75,37.75Zm157.5,70.92q0,19.66-8.8,29.84t-25.83,10.18q-16,0-24.41-8.77t-8.41-25.47V476.44H593.42v-10a47.13,47.13,0,0,0,38.63-43.91h9.68v43.35H671v10.53H641.52V543.9c-.12,5.47.93,9.9,3,12.45a11.08,11.08,0,0,0,8.33,4.19,10.72,10.72,0,0,0,9.53-4.92c2.56-3.76,2.85-7.74,3.41-13.17l.29-2.7h10.32Z" transform="translate(-326.5 -388.56)"/></svg>