<svg id="Layer_1" data-name="Layer 1" xmlns="http://www.w3.org/2000/svg" xmlns:xlink="http://www.w3.org/1999/xlink" viewBox="0 0 633.75 697.66"><defs><style>.cls-1,.cls-13,.cls-4,.cls-5,.cls-9{fill:none;}.cls-2{opacity:0.65;}.cls-3{clip-path:url(#clip-path);}.cls-4,.cls-5{stroke:#2d2c2b;}.cls-4{stroke-linejoin:round;}.cls-13,.cls-5,.cls-9{stroke-miterlimit:10;}.cls-15,.cls-16,.cls-6{fill:#fff;}.cls-7{fill:#102b2a;}.cls-8{fill:#535356;}.cls-9{stroke:#000;stroke-width:1.1px;}.cls-10{font-size:24.9px;}.cls-10,.cls-15{font-family:News706BT-BoldC, News706 BT;}.cls-10,.cls-11,.cls-15,.cls-16{font-weight:700;}.cls-11{font-size:9.96px;letter-spacing:0.01em;}.cls-11,.cls-16{font-family:NewsGothicBT-Bold, NewsGoth BT;}.cls-12{letter-spacing:0.05em;}.cls-13{stroke:#fff;}.cls-14{clip-path:url(#clip-path-2);}.cls-15{font-size:27.83px;}.cls-16{font-size:11.13px;letter-spacing:0.01em;}.cls-17{letter-spacing:0.05em;}.cls-18{fill:#231f20;}</style><clipPath id="clip-path" transform="translate(-220.44 -144.34)"><rect class="cls-1" x="231.08" y="384.57" width="418.34" height="239.05" rx="6.38" transform="translate(944.34 63.84) rotate(90)"/></clipPath><clipPath id="clip-path-2" transform="translate(-220.44 -144.34)"><rect class="cls-1" x="348.27" y="369.48" width="467.62" height="267.21" rx="6.38" transform="translate(1085.17 -79) rotate(90)"/></clipPath></defs><rect x="231.08" y="384.57" width="418.34" height="239.05" rx="6.38" transform="translate(723.9 -80.5) rotate(90)"/><g class="cls-2"><g class="cls-3"><line class="cls-4" x1="275.21" y1="302.53" x2="229.56" y2="348.19"/><polyline class="cls-5" points="170.95 226.14 244.76 299.94 244.76 299.94 213.04 331.66"/><line class="cls-4" x1="238.89" y1="299.2" x2="209.73" y2="328.36"/><line class="cls-4" x1="235.59" y1="295.9" x2="206.43" y2="325.05"/><line class="cls-4" x1="232.28" y1="292.59" x2="203.13" y2="321.75"/><line class="cls-4" x1="228.98" y1="289.29" x2="199.82" y2="318.45"/><line class="cls-4" x1="225.67" y1="285.98" x2="196.52" y2="315.14"/><line class="cls-4" x1="222.37" y1="282.68" x2="193.21" y2="311.84"/><line class="cls-4" x1="219.07" y1="279.37" x2="189.91" y2="308.53"/><line class="cls-4" x1="215.76" y1="276.07" x2="186.61" y2="305.23"/><line class="cls-4" x1="212.46" y1="272.76" x2="183.3" y2="301.92"/><line class="cls-4" x1="209.16" y1="269.46" x2="180" y2="298.62"/><line class="cls-4" x1="205.85" y1="266.16" x2="176.69" y2="295.32"/><line class="cls-4" x1="201.48" y1="263.92" x2="173.53" y2="291.87"/><line class="cls-4" x1="199.24" y1="259.55" x2="170.09" y2="288.71"/><line class="cls-4" x1="195.94" y1="256.24" x2="166.78" y2="285.4"/><line class="cls-4" x1="192.64" y1="252.94" x2="163.48" y2="282.1"/><line class="cls-4" x1="189.33" y1="249.63" x2="160.17" y2="278.79"/><line class="cls-4" x1="186.03" y1="246.33" x2="156.87" y2="275.49"/><line class="cls-4" x1="182.72" y1="243.03" x2="153.57" y2="272.18"/><line class="cls-4" x1="179.42" y1="239.72" x2="150.26" y2="268.88"/><polyline class="cls-5" points="174.29 222.79 251.42 299.92 216.34 334.97"/><polyline class="cls-5" points="177.64 219.45 258.05 299.87 219.64 338.27"/><polyline class="cls-5" points="180.98 216.11 264.69 299.83 222.95 341.58"/><polyline class="cls-5" points="184.32 212.77 271.34 299.79 226.25 344.88"/><line class="cls-4" x1="187.66" y1="209.43" x2="352.74" y2="374.5"/><polyline class="cls-5" points="176.12 236.42 144.4 268.13 228.09 351.82"/><polyline class="cls-5" points="172.81 233.11 137.68 268.26 224.66 355.25"/><polyline class="cls-5" points="169.51 229.81 130.94 268.38 221.24 358.68"/><line class="cls-4" x1="89.58" y1="233.87" x2="217.81" y2="362.1"/><line class="cls-4" x1="86.15" y1="237.3" x2="214.39" y2="365.53"/><line class="cls-4" x1="82.73" y1="240.72" x2="210.96" y2="368.95"/><line class="cls-4" x1="79.3" y1="244.15" x2="207.53" y2="372.38"/><line class="cls-4" x1="75.88" y1="247.58" x2="204.11" y2="375.81"/><line class="cls-4" x1="72.45" y1="251" x2="200.68" y2="379.23"/><line class="cls-4" x1="17.48" y1="59.88" x2="145.72" y2="188.11"/><line class="cls-4" x1="14.06" y1="63.31" x2="142.29" y2="191.54"/><line class="cls-4" x1="10.63" y1="66.74" x2="138.86" y2="194.97"/><line class="cls-4" x1="7.21" y1="70.16" x2="135.44" y2="198.39"/><line class="cls-4" x1="3.78" y1="73.59" x2="132.01" y2="201.82"/><line class="cls-4" x1="0.35" y1="77.01" x2="128.58" y2="205.24"/><line class="cls-4" x1="38.23" y1="39.13" x2="166.46" y2="167.36"/><line class="cls-4" x1="34.81" y1="42.56" x2="163.04" y2="170.79"/><line class="cls-4" x1="31.38" y1="45.99" x2="159.61" y2="174.22"/><line class="cls-4" x1="27.95" y1="49.41" x2="156.19" y2="177.64"/><line class="cls-4" x1="24.53" y1="52.84" x2="152.76" y2="181.07"/><line class="cls-4" x1="21.1" y1="56.26" x2="149.33" y2="184.49"/><line class="cls-4" x1="256.73" y1="359.98" x2="384.96" y2="488.21"/><line class="cls-4" x1="253.3" y1="363.4" x2="381.53" y2="491.63"/><line class="cls-4" x1="249.87" y1="366.83" x2="378.11" y2="495.06"/><line class="cls-4" x1="246.45" y1="370.26" x2="374.68" y2="498.49"/><line class="cls-4" x1="243.02" y1="373.68" x2="371.25" y2="501.91"/><line class="cls-4" x1="239.6" y1="377.11" x2="367.83" y2="505.34"/><line class="cls-4" x1="277.48" y1="339.23" x2="405.71" y2="467.46"/><line class="cls-4" x1="274.05" y1="342.65" x2="402.28" y2="470.89"/><line class="cls-4" x1="270.62" y1="346.08" x2="398.85" y2="474.31"/><line class="cls-4" x1="267.2" y1="349.51" x2="395.43" y2="477.74"/><line class="cls-4" x1="263.77" y1="352.93" x2="392" y2="481.16"/><line class="cls-4" x1="260.34" y1="356.36" x2="388.58" y2="484.59"/><line class="cls-4" x1="373.61" y1="94.33" x2="245.38" y2="222.56"/><line class="cls-4" x1="370.18" y1="90.91" x2="241.95" y2="219.14"/><line class="cls-4" x1="366.76" y1="87.48" x2="238.53" y2="215.71"/><line class="cls-4" x1="363.33" y1="84.05" x2="235.1" y2="212.29"/><line class="cls-4" x1="359.91" y1="80.63" x2="231.68" y2="208.86"/><line class="cls-4" x1="356.48" y1="77.2" x2="228.25" y2="205.43"/><line class="cls-4" x1="353.05" y1="73.77" x2="224.82" y2="202"/><line class="cls-4" x1="349.61" y1="70.34" x2="221.38" y2="198.57"/><line class="cls-4" x1="346.18" y1="66.91" x2="217.95" y2="195.14"/><line class="cls-4" x1="342.75" y1="63.47" x2="214.52" y2="191.71"/><line class="cls-4" x1="339.32" y1="60.04" x2="211.09" y2="188.27"/><line class="cls-4" x1="143.93" y1="362.01" x2="79.82" y2="426.13"/><line class="cls-4" x1="147.64" y1="365.72" x2="83.53" y2="429.84"/><line class="cls-4" x1="151.35" y1="369.43" x2="87.24" y2="433.55"/><line class="cls-4" x1="155.06" y1="373.14" x2="90.95" y2="437.25"/><line class="cls-4" x1="158.77" y1="376.85" x2="94.65" y2="440.96"/><line class="cls-4" x1="238.53" y1="381.17" x2="202.2" y2="417.5"/><line class="cls-4" x1="242.18" y1="384.81" x2="205.84" y2="421.14"/><line class="cls-4" x1="245.82" y1="388.46" x2="209.49" y2="424.79"/><line class="cls-4" x1="249.46" y1="392.1" x2="213.13" y2="428.43"/><line class="cls-4" x1="253.11" y1="395.75" x2="216.78" y2="432.08"/><line class="cls-4" x1="256.75" y1="399.39" x2="220.42" y2="435.72"/><line class="cls-4" x1="260.4" y1="403.03" x2="224.07" y2="439.37"/><line class="cls-4" x1="264.04" y1="406.68" x2="227.71" y2="443.01"/><line class="cls-4" x1="267.69" y1="410.32" x2="231.36" y2="446.65"/><line class="cls-4" x1="271.33" y1="413.97" x2="235" y2="450.3"/><line class="cls-4" x1="274.98" y1="417.61" x2="238.64" y2="453.94"/><line class="cls-4" x1="278.62" y1="421.26" x2="242.29" y2="457.59"/><line class="cls-4" x1="282.27" y1="424.9" x2="245.93" y2="461.23"/><line class="cls-4" x1="285.91" y1="428.55" x2="249.58" y2="464.88"/><line class="cls-4" x1="289.55" y1="432.19" x2="253.22" y2="468.52"/><line class="cls-4" x1="293.2" y1="435.84" x2="256.87" y2="472.17"/><line class="cls-4" x1="296.84" y1="439.48" x2="260.51" y2="475.81"/><line class="cls-4" x1="300.49" y1="443.12" x2="264.16" y2="479.46"/><line class="cls-4" x1="304.13" y1="446.77" x2="267.8" y2="483.1"/><line class="cls-4" x1="307.78" y1="450.41" x2="271.45" y2="486.74"/><line class="cls-4" x1="311.42" y1="454.06" x2="275.09" y2="490.39"/><line class="cls-4" x1="315.07" y1="457.7" x2="278.74" y2="494.03"/><line class="cls-4" x1="318.71" y1="461.35" x2="282.38" y2="497.68"/><line class="cls-4" x1="322.36" y1="464.99" x2="286.02" y2="501.32"/><line class="cls-4" x1="326" y1="468.64" x2="289.67" y2="504.97"/><line class="cls-4" x1="162.48" y1="380.56" x2="98.36" y2="444.67"/><line class="cls-4" x1="166.19" y1="384.26" x2="102.07" y2="448.38"/><line class="cls-4" x1="169.9" y1="387.97" x2="105.78" y2="452.09"/><line class="cls-4" x1="173.61" y1="391.68" x2="100.88" y2="464.41"/><line class="cls-4" x1="140.51" y1="358.58" x2="76.39" y2="422.7"/><line class="cls-4" x1="137.08" y1="355.16" x2="72.97" y2="419.28"/><line class="cls-4" x1="133.66" y1="351.73" x2="69.54" y2="415.85"/><line class="cls-4" x1="130.23" y1="348.31" x2="66.11" y2="412.42"/><line class="cls-4" x1="126.8" y1="344.88" x2="62.69" y2="409"/><line class="cls-4" x1="123.37" y1="341.45" x2="59.26" y2="405.56"/><line class="cls-4" x1="119.94" y1="338.02" x2="55.82" y2="402.13"/><line class="cls-4" x1="116.51" y1="334.58" x2="52.39" y2="398.7"/><line class="cls-4" x1="113.07" y1="331.15" x2="48.96" y2="395.27"/><line class="cls-4" x1="109.64" y1="327.72" x2="45.53" y2="391.84"/><line class="cls-4" x1="170.18" y1="532.13" x2="106.06" y2="596.25"/><line class="cls-4" x1="173.89" y1="535.84" x2="109.77" y2="599.96"/><line class="cls-4" x1="177.6" y1="539.55" x2="113.48" y2="603.67"/><line class="cls-4" x1="181.31" y1="543.26" x2="117.19" y2="607.38"/><line class="cls-4" x1="185.02" y1="546.97" x2="120.9" y2="611.09"/><line class="cls-4" x1="188.57" y1="550.52" x2="124.46" y2="614.64"/><line class="cls-4" x1="192.13" y1="554.08" x2="128.01" y2="618.2"/><line class="cls-4" x1="195.68" y1="557.64" x2="131.57" y2="621.75"/><line class="cls-4" x1="199.24" y1="561.19" x2="135.12" y2="625.31"/><line class="cls-4" x1="166.75" y1="528.71" x2="102.64" y2="592.82"/><line class="cls-4" x1="163.33" y1="525.28" x2="99.21" y2="589.4"/><line class="cls-4" x1="159.9" y1="521.85" x2="95.78" y2="585.97"/><line class="cls-4" x1="156.47" y1="518.43" x2="92.36" y2="582.55"/><line class="cls-4" x1="153.05" y1="515" x2="88.93" y2="579.12"/><line class="cls-4" x1="149.62" y1="511.57" x2="85.5" y2="575.69"/><line class="cls-4" x1="146.18" y1="508.14" x2="82.07" y2="572.25"/><line class="cls-4" x1="142.75" y1="504.71" x2="78.64" y2="568.82"/><line class="cls-4" x1="139.32" y1="501.27" x2="75.2" y2="565.39"/><line class="cls-4" x1="135.89" y1="497.84" x2="71.77" y2="561.96"/><polyline class="cls-5" points="90.51 227.59 127.46 264.54 244.17 147.83"/><polyline class="cls-5" points="90.51 220.9 127.46 257.85 244.17 141.14"/><polyline class="cls-5" points="90.51 214.22 127.46 251.17 244.17 134.46"/><polyline class="cls-5" points="90.51 207.53 127.46 244.48 244.17 127.77"/><polyline class="cls-5" points="90.51 200.85 127.46 237.8 244.17 121.09"/><polyline class="cls-5" points="90.51 194.16 127.46 231.11 244.17 114.4"/><polyline class="cls-5" points="90.51 187.48 127.46 224.43 244.17 107.72"/><polyline class="cls-5" points="90.51 180.79 127.46 217.74 244.17 101.03"/><polyline class="cls-5" points="90.51 174.1 127.46 211.06 244.17 94.34"/><polyline class="cls-5" points="77.13 262.84 199.3 385.01 278.51 305.8 406.74 434.03"/><polyline class="cls-5" points="77.13 269.68 199.3 391.85 278.51 312.64 406.74 440.87"/><polyline class="cls-5" points="77.13 276.51 199.3 398.69 278.51 319.48 406.74 447.71"/><polyline class="cls-5" points="77.13 283.35 199.3 405.52 278.51 326.31 406.74 454.54"/><polyline class="cls-5" points="77.13 290.18 199.3 412.36 278.51 333.15 406.74 461.39"/><line class="cls-4" x1="191" y1="206.08" x2="356.08" y2="371.16"/><line class="cls-4" x1="194.35" y1="202.74" x2="359.42" y2="367.82"/><line class="cls-4" x1="197.69" y1="199.4" x2="362.76" y2="364.48"/><line class="cls-4" x1="201.03" y1="196.06" x2="366.1" y2="361.13"/><line class="cls-4" x1="204.37" y1="192.72" x2="369.45" y2="357.79"/><line class="cls-4" x1="207.71" y1="189.37" x2="372.79" y2="354.45"/><polyline class="cls-5" points="374.64 349.62 250 224.98 319.92 155.06"/><polyline class="cls-5" points="381.98 349.62 257.34 224.98 327.26 155.06"/><polyline class="cls-5" points="389.32 349.62 264.68 224.98 334.6 155.06"/><polyline class="cls-5" points="396.66 349.62 272.02 224.98 341.93 155.06"/><polyline class="cls-5" points="404 349.62 279.36 224.98 349.27 155.06"/><polyline class="cls-5" points="411.34 349.62 286.69 224.98 356.61 155.06"/><polyline class="cls-5" points="418.68 349.62 294.03 224.98 363.95 155.06"/><polyline class="cls-5" points="426.01 349.62 301.37 224.98 371.29 155.06"/><polyline class="cls-5" points="433.35 349.62 308.71 224.98 378.63 155.06"/><polyline class="cls-5" points="440.69 349.62 316.05 224.98 385.96 155.06"/><polyline class="cls-5" points="448.03 349.62 323.39 224.98 393.3 155.06"/><line class="cls-4" x1="286.32" y1="601.45" x2="158.09" y2="473.22"/><line class="cls-4" x1="289.75" y1="598.02" x2="161.51" y2="469.79"/><line class="cls-4" x1="293.17" y1="594.59" x2="164.94" y2="466.36"/><line class="cls-4" x1="296.6" y1="591.17" x2="168.37" y2="462.94"/><line class="cls-4" x1="300.02" y1="587.74" x2="171.79" y2="459.51"/><line class="cls-4" x1="303.45" y1="584.32" x2="175.22" y2="456.08"/><line class="cls-4" x1="265.57" y1="622.2" x2="137.34" y2="493.96"/><line class="cls-4" x1="269" y1="618.77" x2="140.77" y2="490.54"/><line class="cls-4" x1="272.42" y1="615.34" x2="144.19" y2="487.11"/><line class="cls-4" x1="275.85" y1="611.92" x2="147.62" y2="483.69"/><line class="cls-4" x1="279.28" y1="608.49" x2="151.04" y2="480.26"/><line class="cls-4" x1="282.7" y1="605.06" x2="154.47" y2="476.83"/><polyline class="cls-5" points="288.58 509.03 176.35 396.79 59.64 513.5"/><polyline class="cls-5" points="285.38 512.51 176.35 403.48 59.64 520.19"/><polyline class="cls-5" points="281.88 515.69 176.35 410.16 59.64 526.87"/><polyline class="cls-5" points="278.62 519.12 176.35 416.85 59.64 533.56"/><polyline class="cls-5" points="275.14 522.32 176.35 423.53 59.64 540.24"/><polyline class="cls-5" points="271.63 525.5 176.35 430.22 59.64 546.93"/><polyline class="cls-5" points="268.07 528.63 176.35 436.9 59.64 553.61"/><polyline class="cls-5" points="264.63 531.87 176.35 443.59 59.64 560.3"/><polyline class="cls-5" points="261.63 535.56 176.35 450.27 59.64 566.99"/><polyline class="cls-5" points="389.54 662.63 264.89 537.99 334.81 468.07"/><polyline class="cls-5" points="396.87 662.63 272.23 537.99 342.15 468.07"/><polyline class="cls-5" points="404.21 662.63 279.57 537.99 349.49 468.07"/><polyline class="cls-5" points="411.55 662.63 286.91 537.99 356.82 468.07"/><polyline class="cls-5" points="418.89 662.63 294.25 537.99 364.16 468.07"/><polyline class="cls-5" points="426.23 662.63 301.59 537.99 371.5 468.07"/><polyline class="cls-5" points="433.57 662.63 308.93 537.99 378.84 468.07"/><polyline class="cls-5" points="440.9 662.63 316.26 537.99 386.18 468.07"/><polyline class="cls-5" points="448.24 662.63 323.6 537.99 393.52 468.07"/><polyline class="cls-5" points="455.58 662.63 330.94 537.99 400.86 468.07"/><polyline class="cls-5" points="462.92 662.63 338.28 537.99 408.19 468.07"/></g></g><path class="cls-6" d="M335.67,489.15H538.45a6.39,6.39,0,0,1,6.39,6.39V721.81a6.39,6.39,0,0,1-6.39,6.39H335.67a0,0,0,0,1,0,0v-239A0,0,0,0,1,335.67,489.15Z" transform="translate(828.48 24.08) rotate(90)"/><rect class="cls-7" x="222.44" y="344.97" height="1.66"/><path class="cls-8" d="M340.79,548.24" transform="translate(-220.44 -144.34)"/><path class="cls-6" d="M396.13,354.1v50.42h88.24V354.1Zm34.7,42-11.27-11.27-2.37,2.37,7.3,7.31-1.6,1.59-7.3-7.3-2.33,2.33,3.38,3.38L415,396.11l-3.37-3.37-3.38,3.37-1.6-1.6,15.2-15.2L419.59,377l-11.31,11.3-1.6-1.6L418,375.42,415.6,373l-7.32,7.32-1.6-1.6,7.32-7.32-7.32-7.32,1.6-1.6,16.8,16.8-3.92,3.93,11.27,11.28Zm7.86-7.91-24.1-24.09,1.6-1.6,24.1,24.09Zm0-7.88-16.21-16.21,1.6-1.6,16.21,16.21Zm0-7.86-8.35-8.35,1.6-1.6,8.35,8.35Zm34.84,15.69q0,4.35-1.95,6.6a8.43,8.43,0,0,1-11.11.31,7.82,7.82,0,0,1-1.86-5.63V373.54h-3.43v-2.21a10.41,10.41,0,0,0,8.55-9.71h2.14v9.59h6.47v2.33h-6.52v14.92a4.43,4.43,0,0,0,.66,2.76,2.47,2.47,0,0,0,1.84.93,2.38,2.38,0,0,0,2.11-1.09,5.79,5.79,0,0,0,.75-2.92l.07-.59h2.28Z" transform="translate(-220.44 -144.34)"/><path class="cls-6" d="M439.25,451.41a52.68,52.68,0,0,0-52.68,52.68H491.92A52.68,52.68,0,0,0,439.25,451.41Z" transform="translate(-220.44 -144.34)"/><path class="cls-9" d="M493.19,504.09A53.88,53.88,0,0,1,439.31,558h-.07a53.88,53.88,0,0,1-53.88-53.89" transform="translate(-220.44 -144.34)"/><path class="cls-9" d="M509.61,504.09a70.3,70.3,0,0,1-70.29,70.3h-.09a70.31,70.31,0,0,1-70.3-70.3" transform="translate(-220.44 -144.34)"/><path class="cls-9" d="M409.38,616.92s30.87-15.44,61.74,0" transform="translate(-220.44 -144.34)"/><path class="cls-9" d="M417.1,629.78s20.58-10.29,46.3,0" transform="translate(-220.44 -144.34)"/><path class="cls-9" d="M422.24,645.21s15.44-10.29,36,0l-25.73,25.73s10.29,5.14,20.58,0" transform="translate(-220.44 -144.34)"/><text class="cls-10" transform="translate(178.74 373.92)">Tapme</text><text class="cls-11" transform="translate(178.73 351.62)">P<tspan class="cls-12" x="6.46" y="0">owerd by</tspan></text><path class="cls-13" d="M340.65,617V326.27a10.6,10.6,0,0,1,10.59-10.6h178a10.61,10.61,0,0,1,10.6,10.6V681.91a10.61,10.61,0,0,1-10.6,10.6H363" transform="translate(-220.44 -144.34)"/><path d="M540.69,681.91V504.09H539V681.91a9.78,9.78,0,0,1-9.77,9.77h-178a9.78,9.78,0,0,1-9.76-9.77V504.09h-1.66V681.91a11.44,11.44,0,0,0,11.42,11.43h178A11.45,11.45,0,0,0,540.69,681.91Z" transform="translate(-220.44 -144.34)"/><rect x="348.27" y="369.48" width="467.62" height="267.21" rx="6.38" transform="translate(864.73 -223.34) rotate(90)"/><rect class="cls-7" x="364.59" y="342.22" height="1.86"/><path class="cls-8" d="M470.91,552.43" transform="translate(-220.44 -144.34)"/><g class="cls-2"><g class="cls-14"><line class="cls-4" x1="423.57" y1="294.78" x2="372.54" y2="345.82"/><polyline class="cls-5" points="307.03 209.39 389.53 291.89 389.53 291.89 354.07 327.35"/><line class="cls-4" x1="382.97" y1="291.06" x2="350.38" y2="323.65"/><line class="cls-4" x1="379.28" y1="287.37" x2="346.68" y2="319.96"/><line class="cls-4" x1="375.58" y1="283.67" x2="342.99" y2="316.27"/><line class="cls-4" x1="371.89" y1="279.98" x2="339.3" y2="312.57"/><line class="cls-4" x1="368.2" y1="276.28" x2="335.61" y2="308.88"/><line class="cls-4" x1="364.51" y1="272.59" x2="331.91" y2="305.18"/><line class="cls-4" x1="360.81" y1="268.9" x2="328.22" y2="301.49"/><line class="cls-4" x1="357.12" y1="265.2" x2="324.53" y2="297.8"/><line class="cls-4" x1="353.43" y1="261.51" x2="320.83" y2="294.1"/><line class="cls-4" x1="349.73" y1="257.82" x2="317.14" y2="290.41"/><line class="cls-4" x1="346.04" y1="254.12" x2="313.45" y2="286.72"/><line class="cls-4" x1="341.15" y1="251.63" x2="309.91" y2="282.86"/><line class="cls-4" x1="338.65" y1="246.74" x2="306.06" y2="279.33"/><line class="cls-4" x1="334.96" y1="243.04" x2="302.37" y2="275.64"/><line class="cls-4" x1="331.27" y1="239.35" x2="298.67" y2="271.94"/><line class="cls-4" x1="327.57" y1="235.65" x2="294.98" y2="268.25"/><line class="cls-4" x1="323.88" y1="231.96" x2="291.29" y2="264.56"/><line class="cls-4" x1="320.19" y1="228.27" x2="287.6" y2="260.86"/><line class="cls-4" x1="316.49" y1="224.57" x2="283.9" y2="257.17"/><polyline class="cls-5" points="310.76 205.65 396.98 291.87 357.76 331.04"/><polyline class="cls-5" points="314.5 201.92 404.39 291.8 361.46 334.73"/><polyline class="cls-5" points="318.24 198.18 411.82 291.76 365.15 338.43"/><polyline class="cls-5" points="321.97 194.45 419.25 291.72 368.84 342.12"/><line class="cls-4" x1="325.71" y1="190.71" x2="510.23" y2="375.23"/><polyline class="cls-5" points="312.8 220.88 277.35 256.33 370.9 349.88"/><polyline class="cls-5" points="309.11 217.19 269.83 256.48 367.07 353.71"/><polyline class="cls-5" points="305.42 213.49 262.3 256.61 363.24 357.54"/><line class="cls-4" x1="216.07" y1="218.03" x2="359.41" y2="361.37"/><line class="cls-4" x1="212.24" y1="221.86" x2="355.58" y2="365.2"/><line class="cls-4" x1="208.41" y1="225.69" x2="351.75" y2="369.03"/><line class="cls-4" x1="204.58" y1="229.52" x2="347.92" y2="372.86"/><line class="cls-4" x1="200.75" y1="233.35" x2="344.09" y2="376.69"/><line class="cls-4" x1="196.92" y1="237.18" x2="340.26" y2="380.52"/><line class="cls-4" x1="135.48" y1="23.55" x2="278.82" y2="166.89"/><line class="cls-4" x1="131.65" y1="27.38" x2="274.99" y2="170.71"/><line class="cls-4" x1="127.82" y1="31.21" x2="271.16" y2="174.55"/><line class="cls-4" x1="123.99" y1="35.04" x2="267.33" y2="178.37"/><line class="cls-4" x1="120.16" y1="38.87" x2="263.5" y2="182.21"/><line class="cls-4" x1="116.33" y1="42.7" x2="259.67" y2="186.03"/><line class="cls-4" x1="158.67" y1="0.35" x2="302.01" y2="143.69"/><line class="cls-4" x1="154.84" y1="4.18" x2="298.18" y2="147.52"/><line class="cls-4" x1="151.01" y1="8.01" x2="294.35" y2="151.35"/><line class="cls-4" x1="147.18" y1="11.84" x2="290.52" y2="155.18"/><line class="cls-4" x1="143.35" y1="15.67" x2="286.69" y2="159.01"/><line class="cls-4" x1="139.52" y1="19.5" x2="282.86" y2="162.84"/><line class="cls-4" x1="402.91" y1="359" x2="546.25" y2="502.34"/><line class="cls-4" x1="399.08" y1="362.83" x2="542.42" y2="506.17"/><line class="cls-4" x1="395.25" y1="366.66" x2="538.59" y2="510"/><line class="cls-4" x1="391.42" y1="370.49" x2="534.76" y2="513.83"/><line class="cls-4" x1="387.59" y1="374.32" x2="530.93" y2="517.66"/><line class="cls-4" x1="383.76" y1="378.15" x2="527.1" y2="521.49"/><line class="cls-4" x1="426.1" y1="335.8" x2="569.44" y2="479.14"/><line class="cls-4" x1="422.27" y1="339.63" x2="565.61" y2="482.97"/><line class="cls-4" x1="418.44" y1="343.46" x2="561.78" y2="486.8"/><line class="cls-4" x1="414.61" y1="347.29" x2="557.95" y2="490.63"/><line class="cls-4" x1="410.78" y1="351.12" x2="554.12" y2="494.46"/><line class="cls-4" x1="406.95" y1="354.95" x2="550.29" y2="498.29"/><line class="cls-4" x1="533.56" y1="62.06" x2="390.23" y2="205.4"/><line class="cls-4" x1="529.73" y1="58.23" x2="386.4" y2="201.57"/><line class="cls-4" x1="525.9" y1="54.4" x2="382.57" y2="197.74"/><line class="cls-4" x1="522.07" y1="50.57" x2="378.74" y2="193.91"/><line class="cls-4" x1="518.24" y1="46.74" x2="374.91" y2="190.08"/><line class="cls-4" x1="514.41" y1="42.91" x2="371.08" y2="186.25"/><line class="cls-4" x1="510.58" y1="39.07" x2="367.24" y2="182.41"/><line class="cls-4" x1="506.74" y1="35.23" x2="363.4" y2="178.57"/><line class="cls-4" x1="502.9" y1="31.4" x2="359.57" y2="174.74"/><line class="cls-4" x1="499.07" y1="27.56" x2="355.73" y2="170.9"/><line class="cls-4" x1="495.23" y1="23.73" x2="351.89" y2="167.06"/><line class="cls-4" x1="276.83" y1="361.27" x2="205.16" y2="432.94"/><line class="cls-4" x1="280.97" y1="365.42" x2="209.3" y2="437.09"/><line class="cls-4" x1="285.12" y1="369.56" x2="213.45" y2="441.23"/><line class="cls-4" x1="289.27" y1="373.71" x2="217.6" y2="445.38"/><line class="cls-4" x1="293.41" y1="377.85" x2="221.74" y2="449.53"/><line class="cls-4" x1="382.57" y1="382.68" x2="341.96" y2="423.29"/><line class="cls-4" x1="386.64" y1="386.76" x2="346.03" y2="427.37"/><line class="cls-4" x1="390.72" y1="390.83" x2="350.11" y2="431.44"/><line class="cls-4" x1="394.79" y1="394.91" x2="354.18" y2="435.52"/><line class="cls-4" x1="398.86" y1="398.98" x2="358.25" y2="439.59"/><line class="cls-4" x1="402.94" y1="403.05" x2="362.33" y2="443.66"/><line class="cls-4" x1="407.01" y1="407.13" x2="366.4" y2="447.74"/><line class="cls-4" x1="411.09" y1="411.2" x2="370.47" y2="451.81"/><line class="cls-4" x1="415.16" y1="415.27" x2="374.55" y2="455.89"/><line class="cls-4" x1="419.23" y1="419.35" x2="378.62" y2="459.96"/><line class="cls-4" x1="423.31" y1="423.42" x2="382.7" y2="464.03"/><line class="cls-4" x1="427.38" y1="427.5" x2="386.77" y2="468.11"/><line class="cls-4" x1="431.46" y1="431.57" x2="390.84" y2="472.18"/><line class="cls-4" x1="435.53" y1="435.64" x2="394.92" y2="476.26"/><line class="cls-4" x1="439.6" y1="439.72" x2="398.99" y2="480.33"/><line class="cls-4" x1="443.68" y1="443.79" x2="403.07" y2="484.4"/><line class="cls-4" x1="447.75" y1="447.87" x2="407.14" y2="488.48"/><line class="cls-4" x1="451.83" y1="451.94" x2="411.21" y2="492.55"/><line class="cls-4" x1="455.9" y1="456.01" x2="415.29" y2="496.63"/><line class="cls-4" x1="459.97" y1="460.09" x2="419.36" y2="500.7"/><line class="cls-4" x1="464.05" y1="464.16" x2="423.44" y2="504.77"/><line class="cls-4" x1="468.12" y1="468.24" x2="427.51" y2="508.85"/><line class="cls-4" x1="472.2" y1="472.31" x2="431.58" y2="512.92"/><line class="cls-4" x1="476.27" y1="476.38" x2="435.66" y2="517"/><line class="cls-4" x1="480.34" y1="480.46" x2="439.73" y2="521.07"/><line class="cls-4" x1="297.56" y1="382" x2="225.89" y2="453.67"/><line class="cls-4" x1="301.7" y1="386.15" x2="230.03" y2="457.82"/><line class="cls-4" x1="305.85" y1="390.29" x2="234.18" y2="461.96"/><line class="cls-4" x1="310" y1="394.44" x2="228.7" y2="475.74"/><line class="cls-4" x1="273" y1="357.44" x2="201.33" y2="429.11"/><line class="cls-4" x1="269.17" y1="353.61" x2="197.5" y2="425.28"/><line class="cls-4" x1="265.34" y1="349.78" x2="193.67" y2="421.45"/><line class="cls-4" x1="261.51" y1="345.95" x2="189.84" y2="417.62"/><line class="cls-4" x1="257.68" y1="342.12" x2="186.01" y2="413.79"/><line class="cls-4" x1="253.84" y1="338.28" x2="182.17" y2="409.96"/><line class="cls-4" x1="250.01" y1="334.45" x2="178.34" y2="406.12"/><line class="cls-4" x1="246.17" y1="330.61" x2="174.5" y2="402.28"/><line class="cls-4" x1="242.33" y1="326.77" x2="170.66" y2="398.45"/><line class="cls-4" x1="238.5" y1="322.94" x2="166.83" y2="394.61"/><line class="cls-4" x1="306.17" y1="551.44" x2="234.49" y2="623.11"/><line class="cls-4" x1="310.31" y1="555.58" x2="238.64" y2="627.25"/><line class="cls-4" x1="314.46" y1="559.73" x2="242.79" y2="631.4"/><line class="cls-4" x1="318.6" y1="563.87" x2="246.93" y2="635.54"/><line class="cls-4" x1="322.75" y1="568.02" x2="251.08" y2="639.69"/><line class="cls-4" x1="326.72" y1="571.99" x2="255.05" y2="643.66"/><line class="cls-4" x1="330.7" y1="575.97" x2="259.03" y2="647.64"/><line class="cls-4" x1="334.67" y1="579.94" x2="263" y2="651.61"/><line class="cls-4" x1="338.65" y1="583.92" x2="266.98" y2="655.59"/><line class="cls-4" x1="302.33" y1="547.61" x2="230.67" y2="619.28"/><line class="cls-4" x1="298.51" y1="543.78" x2="226.83" y2="615.45"/><line class="cls-4" x1="294.67" y1="539.95" x2="223.01" y2="611.62"/><line class="cls-4" x1="290.85" y1="536.12" x2="219.18" y2="607.79"/><line class="cls-4" x1="287.01" y1="532.29" x2="215.35" y2="603.96"/><line class="cls-4" x1="283.18" y1="528.45" x2="211.51" y2="600.12"/><line class="cls-4" x1="279.34" y1="524.61" x2="207.67" y2="596.28"/><line class="cls-4" x1="275.51" y1="520.78" x2="203.84" y2="592.45"/><line class="cls-4" x1="271.67" y1="516.94" x2="200" y2="588.61"/><line class="cls-4" x1="267.83" y1="513.1" x2="196.16" y2="584.77"/><polyline class="cls-5" points="217.11 211.01 258.41 252.31 388.87 121.85"/><polyline class="cls-5" points="217.11 203.54 258.41 244.84 388.87 114.38"/><polyline class="cls-5" points="217.11 196.07 258.41 237.37 388.87 106.91"/><polyline class="cls-5" points="217.11 188.59 258.41 229.9 388.87 99.43"/><polyline class="cls-5" points="217.11 181.12 258.41 222.42 388.87 91.96"/><polyline class="cls-5" points="217.11 173.65 258.41 214.95 388.87 84.49"/><polyline class="cls-5" points="217.11 166.17 258.41 207.48 388.87 77.02"/><polyline class="cls-5" points="217.11 158.7 258.41 200 388.87 69.54"/><polyline class="cls-5" points="217.11 151.23 258.41 192.53 388.87 62.07"/><polyline class="cls-5" points="202.15 250.41 338.72 386.98 427.26 298.44 570.6 441.77"/><polyline class="cls-5" points="202.15 258.06 338.72 394.63 427.26 306.08 570.6 449.43"/><polyline class="cls-5" points="202.15 265.7 338.72 402.27 427.26 313.73 570.6 457.07"/><polyline class="cls-5" points="202.15 273.34 338.72 409.91 427.26 321.36 570.6 464.7"/><polyline class="cls-5" points="202.15 280.98 338.72 417.55 427.26 329.01 570.6 472.36"/><line class="cls-4" x1="329.44" y1="186.97" x2="513.97" y2="371.5"/><line class="cls-4" x1="333.18" y1="183.24" x2="517.7" y2="367.76"/><line class="cls-4" x1="336.91" y1="179.5" x2="521.44" y2="364.03"/><line class="cls-4" x1="340.65" y1="175.77" x2="525.17" y2="360.29"/><line class="cls-4" x1="344.38" y1="172.03" x2="528.91" y2="356.55"/><line class="cls-4" x1="348.12" y1="168.3" x2="532.64" y2="352.82"/><polyline class="cls-5" points="534.72 347.42 395.39 208.09 473.55 129.94"/><polyline class="cls-5" points="542.92 347.42 403.6 208.09 481.75 129.94"/><polyline class="cls-5" points="551.13 347.42 411.8 208.09 489.95 129.94"/><polyline class="cls-5" points="559.33 347.42 420 208.09 498.15 129.94"/><polyline class="cls-5" points="567.53 347.42 428.2 208.09 506.36 129.94"/><polyline class="cls-5" points="575.73 347.42 436.41 208.09 514.56 129.94"/><polyline class="cls-5" points="583.94 347.42 444.61 208.09 522.76 129.94"/><polyline class="cls-5" points="592.14 347.42 452.81 208.09 530.97 129.94"/><polyline class="cls-5" points="600.34 347.42 461.02 208.09 539.17 129.94"/><polyline class="cls-5" points="608.55 347.42 469.22 208.09 547.37 129.94"/><polyline class="cls-5" points="616.75 347.42 477.42 208.09 555.58 129.94"/><line class="cls-4" x1="435.99" y1="628.91" x2="292.65" y2="485.58"/><line class="cls-4" x1="439.82" y1="625.08" x2="296.48" y2="481.75"/><line class="cls-4" x1="443.65" y1="621.25" x2="300.31" y2="477.92"/><line class="cls-4" x1="447.48" y1="617.43" x2="304.14" y2="474.09"/><line class="cls-4" x1="451.31" y1="613.59" x2="307.97" y2="470.26"/><line class="cls-4" x1="455.14" y1="609.77" x2="311.8" y2="466.43"/><line class="cls-4" x1="412.79" y1="652.11" x2="269.46" y2="508.77"/><line class="cls-4" x1="416.62" y1="648.28" x2="273.29" y2="504.94"/><line class="cls-4" x1="420.45" y1="644.45" x2="277.12" y2="501.11"/><line class="cls-4" x1="424.28" y1="640.62" x2="280.95" y2="497.28"/><line class="cls-4" x1="428.11" y1="636.79" x2="284.78" y2="493.45"/><line class="cls-4" x1="431.94" y1="632.96" x2="288.61" y2="489.62"/><polyline class="cls-5" points="438.52 525.61 313.06 400.15 182.6 530.61"/><polyline class="cls-5" points="434.94 529.5 313.06 407.62 182.6 538.08"/><polyline class="cls-5" points="431.02 533.06 313.06 415.09 182.6 545.55"/><polyline class="cls-5" points="427.38 536.88 313.06 422.57 182.6 553.03"/><polyline class="cls-5" points="423.49 540.47 313.06 430.04 182.6 560.5"/><polyline class="cls-5" points="419.57 544.03 313.06 437.51 182.6 567.97"/><polyline class="cls-5" points="415.59 547.52 313.06 444.99 182.6 575.45"/><polyline class="cls-5" points="411.75 551.15 313.06 452.46 182.6 582.92"/><polyline class="cls-5" points="408.39 555.27 313.06 459.93 182.6 590.39"/><polyline class="cls-5" points="551.36 697.31 412.04 557.98 490.19 479.82"/><polyline class="cls-5" points="559.57 697.31 420.24 557.98 498.39 479.82"/><polyline class="cls-5" points="567.77 697.31 428.44 557.98 506.6 479.82"/><polyline class="cls-5" points="575.97 697.31 436.65 557.98 514.8 479.82"/><polyline class="cls-5" points="584.18 697.31 444.85 557.98 523 479.82"/><polyline class="cls-5" points="592.38 697.31 453.05 557.98 531.21 479.82"/><polyline class="cls-5" points="600.58 697.31 461.26 557.98 539.41 479.82"/><polyline class="cls-5" points="608.79 697.31 469.46 557.98 547.61 479.82"/><polyline class="cls-5" points="616.99 697.31 477.66 557.98 555.82 479.82"/><polyline class="cls-5" points="625.19 697.31 485.87 557.98 564.02 479.82"/><polyline class="cls-5" points="633.39 697.31 494.07 557.98 572.22 479.82"/></g></g><path class="cls-6" d="M681.74,714.8H575.66v-1.86H681.74A10.93,10.93,0,0,0,692.66,702V304.49a10.93,10.93,0,0,0-10.92-10.92h-199a10.93,10.93,0,0,0-10.91,10.92v364H470v-364a12.79,12.79,0,0,1,12.77-12.78h199a12.79,12.79,0,0,1,12.77,12.78V702A12.79,12.79,0,0,1,681.74,714.8Z" transform="translate(-220.44 -144.34)"/><text class="cls-15" transform="translate(249.54 570.46)">Tapme</text><text class="cls-16" transform="translate(249.54 545.53)">P<tspan class="cls-17" x="7.22" y="0">owerd by</tspan></text><rect class="cls-18" x="532.77" y="474.9" width="98.64" height="56.36" transform="translate(943.73 861.83) rotate(180)"/><path class="cls-6" d="M532.77,474.9v56.37H631.4V474.9Zm38.78,47L559,509.26l-2.65,2.65,8.17,8.17-1.79,1.79-8.17-8.17-2.6,2.6,3.78,3.78-1.8,1.79-3.77-3.78-3.77,3.78-1.79-1.79,17-17L559,500.52l-12.64,12.64-1.79-1.79,12.64-12.64-2.67-2.67-8.18,8.18-1.79-1.78,8.18-8.19-8.18-8.18,1.79-1.79,18.78,18.78-4.39,4.4,12.6,12.6Zm8.79-8.85L553.4,486.09l1.79-1.79,26.93,26.93Zm0-8.81-18.12-18.12L564,484.3l18.12,18.12Zm0-8.79L571,486.09l1.79-1.79,9.33,9.34ZM619.28,513q0,4.86-2.17,7.38a9.42,9.42,0,0,1-12.43.35c-1.38-1.45-2.07-3.54-2.07-6.3V496.63h-3.84v-2.46a11.67,11.67,0,0,0,9.56-10.86h2.39V494H618v2.6h-7.29v16.68a4.92,4.92,0,0,0,.73,3.08,2.74,2.74,0,0,0,2.06,1,2.66,2.66,0,0,0,2.36-1.22,6.59,6.59,0,0,0,.84-3.25l.07-.67h2.55Z" transform="translate(-220.44 -144.34)"/></svg>