<svg id="Layer_1" data-name="Layer 1" xmlns="http://www.w3.org/2000/svg" xmlns:xlink="http://www.w3.org/1999/xlink" viewBox="0 0 376.29 279.35"><defs><style>.cls-1,.cls-10,.cls-14,.cls-5,.cls-6{fill:none;}.cls-2{fill:#010101;}.cls-3{opacity:0.65;}.cls-4{clip-path:url(#clip-path);}.cls-5,.cls-6{stroke:#2e2d2b;}.cls-5{stroke-linejoin:round;}.cls-10,.cls-14,.cls-6{stroke-miterlimit:10;}.cls-7{fill:#fff;}.cls-8{fill:#112b2a;}.cls-9{fill:#545457;}.cls-10{stroke:#000;stroke-width:1.1px;}.cls-11{font-size:15px;font-family:News706BT-BoldC, News706 BT;}.cls-11,.cls-12{font-weight:700;}.cls-12{font-size:6px;font-family:NewsGothicBT-Bold, NewsGoth BT;letter-spacing:0.01em;}.cls-13{letter-spacing:0.05em;}.cls-14{stroke:#fff;}</style><clipPath id="clip-path" transform="translate(-61.05 -248.38)"><rect class="cls-1" x="128.54" y="323.18" width="252" height="144" rx="6.38"/></clipPath></defs><rect class="cls-2" x="67.49" y="74.8" width="252" height="144" rx="6.38"/><g class="cls-3"><g class="cls-4"><line class="cls-5" x1="159.02" y1="113.43" x2="186.52" y2="140.93"/><polyline class="cls-6" points="113 176.23 157.46 131.77 157.46 131.77 176.57 150.88"/><line class="cls-5" x1="157.01" y1="135.31" x2="174.58" y2="152.87"/><line class="cls-5" x1="155.02" y1="137.3" x2="172.59" y2="154.86"/><line class="cls-5" x1="153.03" y1="139.29" x2="170.6" y2="156.85"/><line class="cls-5" x1="151.04" y1="141.28" x2="168.61" y2="158.84"/><line class="cls-5" x1="149.05" y1="143.27" x2="166.62" y2="160.83"/><line class="cls-5" x1="147.06" y1="145.26" x2="164.63" y2="162.82"/><line class="cls-5" x1="145.07" y1="147.25" x2="162.64" y2="164.81"/><line class="cls-5" x1="143.08" y1="149.24" x2="160.64" y2="166.8"/><line class="cls-5" x1="141.09" y1="151.23" x2="158.65" y2="168.79"/><line class="cls-5" x1="139.1" y1="153.22" x2="156.66" y2="170.78"/><line class="cls-5" x1="137.11" y1="155.21" x2="154.67" y2="172.77"/><line class="cls-5" x1="135.76" y1="157.84" x2="152.6" y2="174.68"/><line class="cls-5" x1="133.13" y1="159.19" x2="150.69" y2="176.75"/><line class="cls-5" x1="131.14" y1="161.18" x2="148.7" y2="178.74"/><line class="cls-5" x1="129.15" y1="163.17" x2="146.71" y2="180.73"/><line class="cls-5" x1="127.16" y1="165.16" x2="144.72" y2="182.72"/><line class="cls-5" x1="125.17" y1="167.15" x2="142.73" y2="184.71"/><line class="cls-5" x1="123.17" y1="169.14" x2="140.74" y2="186.7"/><line class="cls-5" x1="121.18" y1="171.13" x2="138.75" y2="188.69"/><polyline class="cls-6" points="110.99 174.22 157.45 127.76 178.56 148.89"/><polyline class="cls-6" points="108.98 172.21 157.41 123.77 180.55 146.9"/><polyline class="cls-6" points="106.96 170.19 157.39 119.76 182.54 144.91"/><polyline class="cls-6" points="104.95 168.18 157.37 115.76 184.53 142.92"/><line class="cls-5" x1="102.94" y1="166.17" x2="202.37" y2="66.73"/><polyline class="cls-6" points="119.19 173.12 138.3 192.22 188.71 141.81"/><polyline class="cls-6" points="117.2 175.11 138.38 196.28 190.78 143.88"/><polyline class="cls-6" points="115.21 177.1 138.45 200.33 192.84 145.94"/><line class="cls-5" x1="117.66" y1="225.25" x2="194.91" y2="148"/><line class="cls-5" x1="119.72" y1="227.31" x2="196.97" y2="150.07"/><line class="cls-5" x1="121.79" y1="229.38" x2="199.03" y2="152.13"/><line class="cls-5" x1="123.85" y1="231.44" x2="201.1" y2="154.2"/><line class="cls-5" x1="125.92" y1="233.5" x2="203.16" y2="156.26"/><line class="cls-5" x1="127.98" y1="235.57" x2="205.22" y2="158.32"/><line class="cls-5" x1="12.85" y1="268.68" x2="90.1" y2="191.43"/><line class="cls-5" x1="14.92" y1="270.74" x2="92.16" y2="193.5"/><line class="cls-5" x1="16.98" y1="272.81" x2="94.22" y2="195.56"/><line class="cls-5" x1="19.04" y1="274.87" x2="96.29" y2="197.62"/><line class="cls-5" x1="21.11" y1="276.93" x2="98.35" y2="199.69"/><line class="cls-5" x1="23.17" y1="279" x2="100.42" y2="201.75"/><line class="cls-5" x1="0.35" y1="256.18" x2="77.6" y2="178.93"/><line class="cls-5" x1="2.42" y1="258.24" x2="79.66" y2="181"/><line class="cls-5" x1="4.48" y1="260.31" x2="81.73" y2="183.06"/><line class="cls-5" x1="6.55" y1="262.37" x2="83.79" y2="185.13"/><line class="cls-5" x1="8.61" y1="264.43" x2="85.85" y2="187.19"/><line class="cls-5" x1="10.67" y1="266.5" x2="87.92" y2="189.25"/><line class="cls-5" x1="193.63" y1="124.56" x2="270.87" y2="47.32"/><line class="cls-5" x1="195.69" y1="126.63" x2="272.93" y2="49.38"/><line class="cls-5" x1="197.75" y1="128.69" x2="275" y2="51.45"/><line class="cls-5" x1="199.82" y1="130.75" x2="277.06" y2="53.51"/><line class="cls-5" x1="201.88" y1="132.82" x2="279.13" y2="55.57"/><line class="cls-5" x1="203.94" y1="134.88" x2="281.19" y2="57.64"/><line class="cls-5" x1="181.13" y1="112.06" x2="258.37" y2="34.82"/><line class="cls-5" x1="183.19" y1="114.13" x2="260.43" y2="36.88"/><line class="cls-5" x1="185.25" y1="116.19" x2="262.5" y2="38.95"/><line class="cls-5" x1="187.32" y1="118.25" x2="264.56" y2="41.01"/><line class="cls-5" x1="189.38" y1="120.32" x2="266.63" y2="43.07"/><line class="cls-5" x1="191.45" y1="122.38" x2="268.69" y2="45.14"/><line class="cls-5" x1="33.61" y1="54.15" x2="110.85" y2="131.4"/><line class="cls-5" x1="31.54" y1="56.22" x2="108.79" y2="133.46"/><line class="cls-5" x1="29.48" y1="58.28" x2="106.72" y2="135.52"/><line class="cls-5" x1="27.41" y1="60.34" x2="104.66" y2="137.59"/><line class="cls-5" x1="25.35" y1="62.41" x2="102.59" y2="139.65"/><line class="cls-5" x1="23.29" y1="64.47" x2="100.53" y2="141.72"/><line class="cls-5" x1="21.22" y1="66.54" x2="98.46" y2="143.78"/><line class="cls-5" x1="19.15" y1="68.61" x2="96.4" y2="145.85"/><line class="cls-5" x1="17.08" y1="70.67" x2="94.33" y2="147.92"/><line class="cls-5" x1="15.02" y1="72.74" x2="92.26" y2="149.99"/><line class="cls-5" x1="12.95" y1="74.81" x2="90.19" y2="152.05"/><line class="cls-5" x1="194.85" y1="192.51" x2="233.47" y2="231.13"/><line class="cls-5" x1="197.08" y1="190.27" x2="235.71" y2="228.89"/><line class="cls-5" x1="199.32" y1="188.04" x2="237.94" y2="226.66"/><line class="cls-5" x1="201.55" y1="185.8" x2="240.18" y2="224.43"/><line class="cls-5" x1="203.79" y1="183.57" x2="242.41" y2="222.19"/><line class="cls-5" x1="206.39" y1="135.52" x2="228.27" y2="157.41"/><line class="cls-5" x1="208.58" y1="133.33" x2="230.47" y2="155.21"/><line class="cls-5" x1="210.78" y1="131.13" x2="232.67" y2="153.02"/><line class="cls-5" x1="212.98" y1="128.94" x2="234.86" y2="150.82"/><line class="cls-5" x1="215.17" y1="126.74" x2="237.06" y2="148.63"/><line class="cls-5" x1="217.37" y1="124.55" x2="239.25" y2="146.43"/><line class="cls-5" x1="219.56" y1="122.35" x2="241.45" y2="144.24"/><line class="cls-5" x1="221.76" y1="120.15" x2="243.64" y2="142.04"/><line class="cls-5" x1="223.95" y1="117.96" x2="245.84" y2="139.84"/><line class="cls-5" x1="226.15" y1="115.76" x2="248.03" y2="137.65"/><line class="cls-5" x1="228.34" y1="113.57" x2="250.23" y2="135.45"/><line class="cls-5" x1="230.54" y1="111.37" x2="252.42" y2="133.26"/><line class="cls-5" x1="232.73" y1="109.18" x2="254.62" y2="131.06"/><line class="cls-5" x1="234.93" y1="106.98" x2="256.82" y2="128.87"/><line class="cls-5" x1="237.13" y1="104.79" x2="259.01" y2="126.67"/><line class="cls-5" x1="239.32" y1="102.59" x2="261.21" y2="124.48"/><line class="cls-5" x1="241.52" y1="100.4" x2="263.4" y2="122.28"/><line class="cls-5" x1="243.71" y1="98.2" x2="265.6" y2="120.09"/><line class="cls-5" x1="245.91" y1="96.01" x2="267.79" y2="117.89"/><line class="cls-5" x1="248.1" y1="93.81" x2="269.99" y2="115.69"/><line class="cls-5" x1="250.3" y1="91.61" x2="272.18" y2="113.5"/><line class="cls-5" x1="252.49" y1="89.42" x2="274.38" y2="111.3"/><line class="cls-5" x1="254.69" y1="87.22" x2="276.57" y2="109.11"/><line class="cls-5" x1="256.88" y1="85.03" x2="278.77" y2="106.91"/><line class="cls-5" x1="259.08" y1="82.83" x2="280.96" y2="104.72"/><line class="cls-5" x1="206.02" y1="181.33" x2="244.64" y2="219.96"/><line class="cls-5" x1="208.26" y1="179.1" x2="246.88" y2="217.72"/><line class="cls-5" x1="210.49" y1="176.87" x2="249.11" y2="215.49"/><line class="cls-5" x1="212.72" y1="174.63" x2="256.54" y2="218.44"/><line class="cls-5" x1="192.79" y1="194.57" x2="231.41" y2="233.19"/><line class="cls-5" x1="190.72" y1="196.63" x2="229.35" y2="235.26"/><line class="cls-5" x1="188.66" y1="198.7" x2="227.28" y2="237.32"/><line class="cls-5" x1="186.59" y1="200.76" x2="225.22" y2="239.38"/><line class="cls-5" x1="184.53" y1="202.83" x2="223.15" y2="241.45"/><line class="cls-5" x1="182.46" y1="204.89" x2="221.09" y2="243.52"/><line class="cls-5" x1="180.4" y1="206.96" x2="219.02" y2="245.58"/><line class="cls-5" x1="178.33" y1="209.03" x2="216.95" y2="247.65"/><line class="cls-5" x1="176.26" y1="211.1" x2="214.88" y2="249.72"/><line class="cls-5" x1="174.19" y1="213.16" x2="212.82" y2="251.79"/><line class="cls-5" x1="297.33" y1="176.7" x2="335.95" y2="215.32"/><line class="cls-5" x1="299.56" y1="174.46" x2="338.19" y2="213.08"/><line class="cls-5" x1="301.8" y1="172.23" x2="340.42" y2="210.85"/><line class="cls-5" x1="304.03" y1="169.99" x2="342.65" y2="208.62"/><line class="cls-5" x1="306.27" y1="167.76" x2="344.89" y2="206.38"/><line class="cls-5" x1="308.41" y1="165.62" x2="347.03" y2="204.24"/><line class="cls-5" x1="310.55" y1="163.47" x2="349.17" y2="202.1"/><line class="cls-5" x1="312.69" y1="161.33" x2="351.31" y2="199.96"/><line class="cls-5" x1="314.83" y1="159.19" x2="353.46" y2="197.81"/><line class="cls-5" x1="295.27" y1="178.76" x2="333.89" y2="217.38"/><line class="cls-5" x1="293.2" y1="180.82" x2="331.82" y2="219.45"/><line class="cls-5" x1="291.14" y1="182.89" x2="329.76" y2="221.51"/><line class="cls-5" x1="289.07" y1="184.95" x2="327.7" y2="223.57"/><line class="cls-5" x1="287.01" y1="187.02" x2="325.63" y2="225.64"/><line class="cls-5" x1="284.94" y1="189.08" x2="323.57" y2="227.71"/><line class="cls-5" x1="282.87" y1="191.15" x2="321.5" y2="229.77"/><line class="cls-5" x1="280.81" y1="193.22" x2="319.43" y2="231.84"/><line class="cls-5" x1="278.74" y1="195.29" x2="317.36" y2="233.91"/><line class="cls-5" x1="276.67" y1="197.35" x2="315.29" y2="235.98"/><polyline class="cls-6" points="113.88 224.69 136.13 202.43 65.83 132.13"/><polyline class="cls-6" points="109.85 224.69 132.11 202.43 61.8 132.13"/><polyline class="cls-6" points="105.82 224.69 128.08 202.43 57.77 132.13"/><polyline class="cls-6" points="101.8 224.69 124.05 202.43 53.75 132.13"/><polyline class="cls-6" points="97.77 224.69 120.03 202.43 49.72 132.13"/><polyline class="cls-6" points="93.74 224.69 116 202.43 45.69 132.13"/><polyline class="cls-6" points="89.71 224.69 111.97 202.43 41.67 132.13"/><polyline class="cls-6" points="85.69 224.69 107.94 202.43 37.64 132.13"/><polyline class="cls-6" points="81.66 224.69 103.92 202.43 33.61 132.13"/><polyline class="cls-6" points="135.11 232.75 208.71 159.15 160.99 111.44 238.23 34.2"/><polyline class="cls-6" points="139.23 232.75 212.82 159.15 165.11 111.44 242.36 34.2"/><polyline class="cls-6" points="143.35 232.75 216.94 159.15 169.23 111.44 246.47 34.2"/><polyline class="cls-6" points="147.46 232.75 221.06 159.15 173.34 111.44 250.59 34.2"/><polyline class="cls-6" points="151.58 232.75 225.18 159.15 177.47 111.44 254.71 34.2"/><line class="cls-5" x1="100.92" y1="164.15" x2="200.36" y2="64.71"/><line class="cls-5" x1="98.91" y1="162.14" x2="198.35" y2="62.7"/><line class="cls-5" x1="96.9" y1="160.13" x2="196.34" y2="60.69"/><line class="cls-5" x1="94.88" y1="158.11" x2="194.32" y2="58.67"/><line class="cls-5" x1="92.87" y1="156.1" x2="192.31" y2="56.66"/><line class="cls-5" x1="90.86" y1="154.09" x2="190.3" y2="54.65"/><polyline class="cls-6" points="187.39 53.53 112.31 128.61 70.19 86.5"/><polyline class="cls-6" points="187.39 49.11 112.31 124.19 70.19 82.08"/><polyline class="cls-6" points="187.39 44.69 112.31 119.77 70.19 77.66"/><polyline class="cls-6" points="187.39 40.27 112.31 115.35 70.19 73.23"/><polyline class="cls-6" points="187.39 35.85 112.31 110.93 70.19 68.81"/><polyline class="cls-6" points="187.39 31.43 112.31 106.51 70.19 64.39"/><polyline class="cls-6" points="187.39 27.01 112.31 102.09 70.19 59.97"/><polyline class="cls-6" points="187.39 22.59 112.31 97.67 70.19 55.55"/><polyline class="cls-6" points="187.39 18.16 112.31 93.25 70.19 51.13"/><polyline class="cls-6" points="187.39 13.74 112.31 88.83 70.19 46.71"/><polyline class="cls-6" points="187.39 9.32 112.31 84.41 70.19 42.29"/><line class="cls-5" x1="339.08" y1="106.74" x2="261.84" y2="183.98"/><line class="cls-5" x1="337.02" y1="104.67" x2="259.77" y2="181.92"/><line class="cls-5" x1="334.95" y1="102.61" x2="257.71" y2="179.85"/><line class="cls-5" x1="332.89" y1="100.54" x2="255.65" y2="177.79"/><line class="cls-5" x1="330.83" y1="98.48" x2="253.58" y2="175.72"/><line class="cls-5" x1="328.76" y1="96.42" x2="251.52" y2="173.66"/><line class="cls-5" x1="351.58" y1="119.23" x2="274.34" y2="196.48"/><line class="cls-5" x1="349.52" y1="117.17" x2="272.27" y2="194.41"/><line class="cls-5" x1="347.45" y1="115.11" x2="270.21" y2="192.35"/><line class="cls-5" x1="345.39" y1="113.04" x2="268.15" y2="190.29"/><line class="cls-5" x1="343.33" y1="110.98" x2="266.08" y2="188.22"/><line class="cls-5" x1="341.26" y1="108.91" x2="264.02" y2="186.16"/><polyline class="cls-6" points="283.41 105.37 215.8 172.98 286.11 243.29"/><polyline class="cls-6" points="285.51 107.3 219.83 172.98 290.13 243.29"/><polyline class="cls-6" points="287.43 109.41 223.85 172.98 294.16 243.29"/><polyline class="cls-6" points="289.49 111.38 227.88 172.98 298.19 243.29"/><polyline class="cls-6" points="291.42 113.47 231.91 172.98 302.21 243.29"/><polyline class="cls-6" points="293.34 115.58 235.94 172.98 306.24 243.29"/><polyline class="cls-6" points="295.22 117.73 239.96 172.98 310.27 243.29"/><polyline class="cls-6" points="297.17 119.8 243.99 172.98 314.3 243.29"/><polyline class="cls-6" points="299.39 121.61 248.02 172.98 318.32 243.29"/><polyline class="cls-6" points="375.94 44.56 300.86 119.64 258.74 77.53"/><polyline class="cls-6" points="375.94 40.14 300.86 115.22 258.74 73.11"/><polyline class="cls-6" points="375.94 35.72 300.86 110.8 258.74 68.69"/><polyline class="cls-6" points="375.94 31.3 300.86 106.38 258.74 64.26"/><polyline class="cls-6" points="375.94 26.88 300.86 101.96 258.74 59.84"/><polyline class="cls-6" points="375.94 22.46 300.86 97.54 258.74 55.42"/><polyline class="cls-6" points="375.94 18.04 300.86 93.12 258.74 51"/><polyline class="cls-6" points="375.94 13.62 300.86 88.7 258.74 46.58"/><polyline class="cls-6" points="375.94 9.2 300.86 84.28 258.74 42.16"/><polyline class="cls-6" points="375.94 4.77 300.86 79.86 258.74 37.74"/><polyline class="cls-6" points="375.94 0.35 300.86 75.44 258.74 33.32"/></g></g><path class="cls-7" d="M193.49,74.8H313.1a6.39,6.39,0,0,1,6.39,6.39V212.41a6.39,6.39,0,0,1-6.39,6.39H193.49a0,0,0,0,1,0,0V74.8A0,0,0,0,1,193.49,74.8Z"/><rect class="cls-8" x="185.08" y="144.71" height="1"/><path class="cls-9" d="M281.13,455.09" transform="translate(-61.05 -248.38)"/><path class="cls-7" d="M152.8,380v30.37H206V380Zm20.9,25.31-6.79-6.79-1.43,1.42,4.4,4.4-1,1-4.41-4.4-1.4,1.4,2,2-1,1-2-2-2,2-1-1,9.16-9.15-1.38-1.39-6.82,6.82-1-1,6.81-6.81-1.44-1.44-4.41,4.41-1-1,4.41-4.41L159.15,386l1-1,10.13,10.13-2.37,2.36,6.79,6.79Zm4.73-4.77L163.92,386l1-1,14.51,14.52Zm0-4.75L168.67,386l1-1,9.76,9.77Zm0-4.73-5-5,1-1,5,5Zm21,9.45a6,6,0,0,1-1.17,4,4.35,4.35,0,0,1-3.45,1.35,4.3,4.3,0,0,1-3.25-1.17,4.67,4.67,0,0,1-1.12-3.39V391.7h-2.06v-1.33a6.29,6.29,0,0,0,5.15-5.85h1.28v5.78h3.9v1.4h-3.92v9a2.63,2.63,0,0,0,.39,1.66,1.52,1.52,0,0,0,1.11.56,1.44,1.44,0,0,0,1.27-.66,3.6,3.6,0,0,0,.46-1.75l0-.36h1.38Z" transform="translate(-61.05 -248.38)"/><path class="cls-7" d="M222.8,395.78a31.74,31.74,0,0,0,31.74,31.74V364.05A31.74,31.74,0,0,0,222.8,395.78Z" transform="translate(-61.05 -248.38)"/><path class="cls-10" d="M254.54,363.29A32.46,32.46,0,0,1,287,395.75v0a32.47,32.47,0,0,1-32.46,32.47" transform="translate(-61.05 -248.38)"/><path class="cls-10" d="M254.54,353.39a42.35,42.35,0,0,1,42.34,42.35v.05a42.35,42.35,0,0,1-42.34,42.35" transform="translate(-61.05 -248.38)"/><path class="cls-10" d="M352.29,376.58s9.3,18.6,0,37.19" transform="translate(-61.05 -248.38)"/><path class="cls-10" d="M344.54,381.23s6.2,12.4,0,27.89" transform="translate(-61.05 -248.38)"/><path class="cls-10" d="M335.24,384.33s6.2,9.3,0,21.69l-15.49-15.49s-3.1,6.2,0,12.39" transform="translate(-61.05 -248.38)"/><text class="cls-11" transform="translate(169.74 154.34)">Tapme</text><text class="cls-12" transform="translate(169.74 140.9)">P<tspan class="cls-13" x="3.89" y="0">owerd by</tspan></text><path class="cls-14" d="M322.57,455.18H147.42a6.39,6.39,0,0,1-6.38-6.39V341.56a6.38,6.38,0,0,1,6.38-6.38H361.65a6.38,6.38,0,0,1,6.39,6.38V441.73" transform="translate(-61.05 -248.38)"/><path class="cls-2" d="M361.65,334.68H254.54v1H361.65a5.89,5.89,0,0,1,5.89,5.88V448.79a5.89,5.89,0,0,1-5.89,5.89H254.54v1H361.65a6.9,6.9,0,0,0,6.89-6.89V341.56A6.89,6.89,0,0,0,361.65,334.68Z" transform="translate(-61.05 -248.38)"/></svg>