<svg xmlns="http://www.w3.org/2000/svg" xmlns:xlink="http://www.w3.org/1999/xlink" viewBox="0 0 364.74 736.05"><defs><style>.cls-1{fill:#00000c;}.cls-2{fill:url(#linear-gradient);}.cls-3{fill:url(#linear-gradient-2);}.cls-4{fill:url(#linear-gradient-3);}.cls-5{fill:url(#linear-gradient-4);}.cls-6{fill:url(#linear-gradient-5);}.cls-7{fill:url(#linear-gradient-6);}.cls-8{fill:url(#linear-gradient-7);}.cls-9{fill:url(#linear-gradient-8);}.cls-10{fill:url(#linear-gradient-9);}.cls-11{fill:url(#linear-gradient-10);}.cls-12{fill:#fff;}</style><linearGradient id="linear-gradient" x1="319.01" y1="499.94" x2="324.36" y2="499.94" gradientUnits="userSpaceOnUse"><stop offset="0" stop-color="#666"/><stop offset="1"/></linearGradient><linearGradient id="linear-gradient-2" x1="676.49" y1="499.98" x2="681.79" y2="499.98" gradientUnits="userSpaceOnUse"><stop offset="0"/><stop offset="1" stop-color="#666"/></linearGradient><linearGradient id="linear-gradient-3" x1="500" y1="866.67" x2="500" y2="824.35" gradientUnits="userSpaceOnUse"><stop offset="0" stop-color="#959595"/><stop offset="1"/></linearGradient><linearGradient id="linear-gradient-4" x1="500" y1="173.8" x2="500" y2="120.95" gradientUnits="userSpaceOnUse"><stop offset="0"/><stop offset="1" stop-color="gray"/></linearGradient><linearGradient id="linear-gradient-5" x1="659.82" y1="500.22" x2="672.69" y2="500.22" gradientUnits="userSpaceOnUse"><stop offset="0" stop-color="#f1f1f1"/><stop offset="0" stop-color="#f0f0f0"/><stop offset="0.14" stop-color="#b7b7b7"/><stop offset="0.27" stop-color="#888"/><stop offset="0.4" stop-color="#636363"/><stop offset="0.51" stop-color="#494949"/><stop offset="0.62" stop-color="#393939"/><stop offset="0.7" stop-color="#333"/></linearGradient><linearGradient id="linear-gradient-6" x1="334.69" y1="838.6" x2="665.32" y2="838.6" gradientUnits="userSpaceOnUse"><stop offset="0" stop-color="#1a1a1a"/><stop offset="0.12" stop-color="#454545"/><stop offset="0.23" stop-color="#666"/><stop offset="0.34" stop-color="#7e7e7e"/><stop offset="0.44" stop-color="#8d8d8d"/><stop offset="0.52" stop-color="#929292"/><stop offset="0.59" stop-color="#8b8b8b"/><stop offset="0.7" stop-color="#767676"/><stop offset="0.82" stop-color="#545454"/><stop offset="0.97" stop-color="#252525"/><stop offset="1" stop-color="#1a1a1a"/></linearGradient><linearGradient id="linear-gradient-7" x1="334.69" y1="161.88" x2="672.72" y2="161.88" xlink:href="#linear-gradient-6"/><linearGradient id="linear-gradient-8" x1="327.3" y1="500" x2="334.94" y2="500" gradientUnits="userSpaceOnUse"><stop offset="0" stop-color="#c8c8c8"/><stop offset="0.21" stop-color="#a0a0a0"/><stop offset="0.59" stop-color="#5d5d5d"/><stop offset="0.86" stop-color="#343434"/><stop offset="1" stop-color="#242424"/></linearGradient><linearGradient id="linear-gradient-9" x1="659.79" y1="500.26" x2="672.69" y2="500.26" gradientUnits="userSpaceOnUse"><stop offset="0" stop-color="#242424"/><stop offset="0.14" stop-color="#343434"/><stop offset="0.41" stop-color="#5d5d5d"/><stop offset="0.79" stop-color="#a0a0a0"/><stop offset="1" stop-color="#c8c8c8"/></linearGradient><linearGradient id="linear-gradient-10" x1="160.07" y1="28.11" x2="202.44" y2="28.11" gradientUnits="userSpaceOnUse"><stop offset="0" stop-color="#333"/><stop offset="0.09" stop-color="#2b2b2b"/><stop offset="0.29" stop-color="#1e1e1e"/><stop offset="0.48" stop-color="#1a1a1a"/><stop offset="0.79" stop-color="#1c1c1c"/><stop offset="0.9" stop-color="#232323"/><stop offset="0.98" stop-color="#2e2e2e"/><stop offset="1" stop-color="#333"/></linearGradient></defs><g id="object"><path class="cls-1" d="M632.75,132H367.25a49.62,49.62,0,0,0-49.62,49.62V818.44a49.63,49.63,0,0,0,49.62,49.62h265.5a49.63,49.63,0,0,0,49.62-49.62V181.63A49.62,49.62,0,0,0,632.75,132ZM681,813.83a48.09,48.09,0,0,1-2.33,14.82c-.11.36-.23.72-.36,1.07s-.25.71-.39,1.06-.19.53-.3.79c-.31.78-.65,1.56-1,2.32q-.23.51-.48,1c-.23.47-.46.93-.7,1.39s-.33.61-.5.92-.36.64-.55,1c-.52.89-1.07,1.76-1.65,2.62-.19.27-.37.54-.57.81s-.42.6-.65.89-.43.59-.66.89-.45.58-.69.86-.47.58-.72.86c-.47.56-1,1.12-1.48,1.65-.77.83-1.57,1.63-2.41,2.41l-.75.68c-.58.52-1.17,1-1.77,1.52l-.79.61q-1.32,1-2.7,1.95-.46.32-.93.6c-.63.41-1.27.79-1.91,1.16-.32.19-.64.36-1,.53-1,.57-2.1,1.1-3.18,1.58-.29.14-.58.26-.86.38s-.68.3-1,.43l-1,.41c-.79.29-1.58.57-2.38.82l-.85.26c-1,.31-2.12.59-3.21.83l-1.14.24-1.22.22c-.74.13-1.5.24-2.26.33h0l-.44,0-.32,0h-.13c.68-.07,1.36-.16,2-.28l1-.17,1-.19c1-.21,2-.46,2.94-.72l1-.29c.63-.19,1.26-.4,1.88-.62.94-.34,1.86-.71,2.77-1.11.3-.12.6-.26.9-.4l.88-.43c.59-.29,1.17-.6,1.75-.91s1.14-.64,1.7-1l1.5-1,.15-.1c.81-.56,1.6-1.13,2.37-1.73.26-.19.52-.39.77-.61.72-.58,1.42-1.18,2.1-1.81a44.27,44.27,0,0,0,4.65-5l.6-.77a44.44,44.44,0,0,0,5.16-8.79c.22-.5.43-1,.62-1.52a42.67,42.67,0,0,0,2.25-7.75c.1-.52.19-1,.28-1.59a44.87,44.87,0,0,0,.49-6.6V181.63a43.72,43.72,0,0,0-39-43.41l-1.17-.1-1.2-.07h0c-.75,0-1.48-.06-2.24-.06H367.26c-.76,0-1.5,0-2.24.06h0a43.69,43.69,0,0,0-41.37,43.58V818.44a43.7,43.7,0,0,0,38.73,43.36l-.89-.08h0c-.77-.09-1.52-.2-2.27-.33a48.25,48.25,0,0,1-12.91-4.14l-.85-.41c-.72-.38-1.43-.76-2.13-1.16l-.95-.57a45.68,45.68,0,0,1-4.57-3.14l-.78-.61c-.77-.63-1.53-1.27-2.26-1.94l-.7-.67-.81-.78-.79-.8c-.17-.18-.34-.35-.5-.54s-.43-.46-.63-.69a47.93,47.93,0,0,1-3.45-4.34c-.2-.27-.38-.54-.57-.81-.58-.85-1.12-1.71-1.64-2.6-.19-.31-.37-.63-.55-1a48.38,48.38,0,0,1-3.38-7.52c-.13-.36-.25-.71-.36-1.07a49.12,49.12,0,0,1-1.43-5.52L319.7,822a48.75,48.75,0,0,1-.69-8.16V181.63c0-.48,0-.95,0-1.42s0-.71,0-1.06c0-.78.09-1.54.17-2.31,0-.39.08-.79.13-1.17,0-.22.06-.42.08-.63s.07-.5.11-.76.12-.79.2-1.18c.12-.69.25-1.38.41-2,.07-.34.16-.67.24-1,.24-1,.52-2,.83-3l.3-.92c.13-.38.26-.76.4-1.12s.23-.62.35-.93.19-.5.3-.75.25-.61.38-.9.19-.45.31-.68.29-.65.46-1c.26-.57.55-1.14.85-1.7.15-.29.31-.58.47-.86s.37-.66.56-1a49.23,49.23,0,0,1,4.54-6.45l.73-.86c.28-.31.56-.64.85-.95.48-.51,1-1,1.46-1.51s1.07-1.05,1.63-1.56,1.12-1,1.7-1.47c.28-.24.58-.47.87-.71.59-.46,1.19-.91,1.81-1.35s1.22-.86,1.86-1.27,1.27-.81,1.93-1.18c.32-.2.65-.38,1-.56s.66-.36,1-.54.67-.35,1-.51l1-.5c.68-.32,1.38-.62,2.09-.9l1-.41.1,0,1-.37,1-.35c.39-.12.77-.25,1.17-.36l1.11-.32,1.12-.29c.38-.09.75-.19,1.13-.27.77-.17,1.53-.32,2.3-.45.38-.06.77-.13,1.16-.18.82-.12,1.66-.23,2.5-.3.66-.06,1.34-.11,2-.15l1.23,0,1.25,0H632.75l1.25,0,1,0c.78,0,1.55.1,2.33.17h0l1.17.13,1.17.16,1.16.18c.38.06.76.14,1.14.21h0l1.13.24,1,.23.22.06,1,.25c.45.12.9.25,1.34.39l.91.29c.67.22,1.33.45,2,.7.46.15.9.33,1.33.51l1,.41c.35.15.69.3,1,.47s.68.32,1,.49a45.51,45.51,0,0,1,6.91,4.15c.27.18.53.38.79.58,1,.72,1.88,1.46,2.77,2.25q.6.51,1.17,1.05A46.17,46.17,0,0,1,670,151c.25.3.48.58.71.88.49.61,1,1.23,1.39,1.86.23.31.45.63.67.95.37.55.73,1.11,1.08,1.67l.52.86c.31.54.62,1.09.92,1.65q.22.39.42.81c.49.93.93,1.87,1.36,2.83.1.25.21.5.31.76.4,1,.76,1.93,1.1,2.92.13.37.24.73.36,1.1a48.56,48.56,0,0,1,1.54,6.51c0,.23.08.47.11.72s.11.77.16,1.16.09.78.13,1.18.07.79.11,1.18c0,.73.08,1.46.1,2.2q0,.71,0,1.41Z" transform="translate(-317.63 -132.01)"/><path class="cls-2" d="M362.62,861.84l-1.16-.12h0c-.77-.09-1.52-.2-2.27-.33a48.25,48.25,0,0,1-12.91-4.14l-.85-.41c-.72-.38-1.43-.76-2.13-1.16l-.95-.57a45.68,45.68,0,0,1-4.57-3.14l-.78-.61c-.77-.63-1.53-1.27-2.26-1.94l-.7-.67-.81-.78-.79-.8c-.17-.18-.34-.35-.5-.54s-.43-.46-.63-.69a47.93,47.93,0,0,1-3.45-4.34c-.2-.27-.38-.54-.57-.81-.58-.85-1.12-1.71-1.64-2.6-.19-.31-.37-.63-.55-1a48.38,48.38,0,0,1-3.38-7.52c-.13-.36-.25-.71-.36-1.07a49.12,49.12,0,0,1-1.43-5.52L319.7,822a48.75,48.75,0,0,1-.69-8.16V186.23a48.3,48.3,0,0,1,46-48.18,43.69,43.69,0,0,0-41.37,43.58V818.44A43.7,43.7,0,0,0,362.62,861.84Z" transform="translate(-317.63 -132.01)"/><path class="cls-3" d="M681,186.23v627.6a48.09,48.09,0,0,1-2.33,14.82c-.11.36-.23.72-.36,1.07s-.25.71-.39,1.06-.19.53-.3.79c-.31.78-.65,1.56-1,2.32q-.23.51-.48,1c-.23.47-.46.93-.7,1.39s-.33.61-.5.92-.36.64-.55,1c-.52.89-1.07,1.76-1.65,2.62-.19.27-.37.54-.57.81s-.43.6-.65.89-.44.6-.66.89l-.69.86c-.23.29-.47.58-.72.86-.48.56-1,1.12-1.48,1.65-.77.83-1.57,1.63-2.41,2.41l-.75.68c-.58.52-1.17,1-1.77,1.52l-.79.61q-1.32,1-2.7,1.95l-.93.6c-.63.41-1.27.79-1.91,1.16l-1,.53c-1,.57-2.1,1.1-3.18,1.58-.29.14-.58.26-.86.38s-.68.3-1,.43l-1,.41c-.79.29-1.58.57-2.38.82l-.85.26c-1,.31-2.12.59-3.21.83l-1.14.24-1.22.22c-.75.13-1.51.24-2.26.33h0l-1.16.12a43.71,43.71,0,0,0,39-43.4V181.63a43.71,43.71,0,0,0-40.18-43.51A48.3,48.3,0,0,1,681,186.23Z" transform="translate(-317.63 -132.01)"/><path class="cls-4" d="M681,813.83v4.61a48.29,48.29,0,0,1-48.24,48.23H367.26A48.29,48.29,0,0,1,319,818.44v-4.61a48.75,48.75,0,0,0,.69,8.16l.21,1.14a49.12,49.12,0,0,0,1.43,5.52c.11.36.23.71.36,1.07a48.38,48.38,0,0,0,3.38,7.52c.18.32.36.64.55,1,.52.89,1.06,1.75,1.64,2.6.19.27.37.54.57.81a47.93,47.93,0,0,0,3.45,4.34q.3.34.63.69c.16.19.33.36.5.54l.79.8.81.78.7.67c.73.67,1.49,1.31,2.26,1.94l.78.61a45.68,45.68,0,0,0,4.57,3.14l.95.57c.7.4,1.41.78,2.13,1.16l.85.41a48.25,48.25,0,0,0,12.91,4.14c.75.13,1.5.24,2.27.33h0c.78.09,1.55.16,2.33.22l1.2.07c.75,0,1.5.06,2.27.06H632.75c.76,0,1.5,0,2.25-.06l1.2-.07c.63-.05,1.26-.1,1.89-.18l.44,0h0c.76-.09,1.52-.2,2.26-.33l1.22-.22,1.14-.24c1.09-.24,2.16-.52,3.21-.83l.85-.26c.8-.25,1.59-.53,2.38-.82l1-.41c.35-.13.69-.27,1-.43s.57-.24.86-.38c1.08-.48,2.14-1,3.18-1.58.32-.17.64-.34,1-.53.64-.37,1.28-.75,1.91-1.16q.46-.28.93-.6,1.38-.93,2.7-1.95l.79-.61c.6-.5,1.19-1,1.77-1.52l.75-.68c.84-.78,1.64-1.58,2.41-2.41.51-.53,1-1.09,1.48-1.65.25-.28.49-.57.72-.86s.47-.57.69-.86.45-.59.66-.89.44-.58.65-.89.38-.54.57-.81c.58-.86,1.13-1.73,1.65-2.62.19-.32.37-.64.55-1s.34-.61.5-.92.47-.92.7-1.39.34-.68.48-1c.35-.76.69-1.54,1-2.32.11-.26.21-.52.3-.79s.27-.7.39-1.06.25-.71.36-1.07A48.09,48.09,0,0,0,681,813.83Z" transform="translate(-317.63 -132.01)"/><path class="cls-5" d="M681,181.63v4.6a48.3,48.3,0,0,0-43.62-48l-1.17-.1-1.2-.07h0c-.75,0-1.48-.06-2.24-.06H367.26c-.76,0-1.5,0-2.24.06h0a48.3,48.3,0,0,0-46,48.18v-4.6c0-.48,0-.95,0-1.42s0-.71,0-1.06c0-.78.09-1.54.17-2.31,0-.39.08-.79.13-1.17,0-.22.06-.42.08-.63s.07-.5.11-.76.12-.79.2-1.18c.12-.69.25-1.38.41-2,.07-.34.16-.67.24-1,.24-1,.52-2,.83-3l.3-.92c.13-.38.26-.76.4-1.12s.23-.62.35-.93.19-.5.3-.75.25-.61.38-.9.19-.45.31-.68.29-.65.46-1c.26-.57.55-1.14.85-1.7.15-.29.31-.58.47-.86s.37-.66.56-1a49.23,49.23,0,0,1,4.54-6.45l.73-.86c.28-.31.56-.64.85-.95.48-.51,1-1,1.46-1.51s1.07-1.05,1.63-1.56,1.12-1,1.7-1.47c.28-.24.58-.47.87-.71.59-.46,1.19-.91,1.81-1.35s1.22-.86,1.86-1.27,1.27-.81,1.93-1.18c.32-.2.65-.38,1-.56s.66-.36,1-.54.67-.35,1-.51l1-.5c.68-.32,1.38-.62,2.09-.9l1-.41.1,0,1-.37,1-.35c.39-.12.77-.25,1.17-.36l1.11-.32,1.12-.29c.38-.09.75-.19,1.13-.27.77-.17,1.53-.32,2.3-.45.38-.06.77-.13,1.16-.18.82-.12,1.66-.23,2.5-.3.66-.06,1.34-.11,2-.15l1.23,0,1.25,0H632.75l1.25,0,1,0c.78,0,1.55.1,2.33.17h0l1.17.13,1.17.16,1.16.18c.38.06.76.14,1.14.21h0l1.13.24,1,.23.22.06,1,.25c.45.12.9.25,1.34.39l.91.29c.67.22,1.33.45,2,.7.46.15.9.33,1.33.51l1,.41c.35.15.69.3,1,.47s.68.32,1,.49a45.51,45.51,0,0,1,6.91,4.15c.27.18.53.38.79.58,1,.72,1.88,1.46,2.77,2.25q.6.51,1.17,1.05A46.17,46.17,0,0,1,670,151c.25.3.48.58.71.88.49.61,1,1.23,1.39,1.86.23.31.45.63.67.95.37.55.73,1.11,1.08,1.67l.52.86c.31.54.62,1.09.92,1.65q.22.39.42.81c.49.93.93,1.87,1.36,2.83.1.25.21.5.31.76.4,1,.76,1.93,1.1,2.92.13.37.24.73.36,1.1a48.56,48.56,0,0,1,1.54,6.51c0,.23.08.47.11.72s.11.77.16,1.16.09.78.13,1.18.07.79.11,1.18c0,.73.08,1.46.1,2.2Q681,180.93,681,181.63Z" transform="translate(-317.63 -132.01)"/><path d="M635,138.05h0c-.74,0-1.48-.06-2.24-.06H367.26c-.76,0-1.5,0-2.24.06h0a43.69,43.69,0,0,0-41.37,43.58V818.44a43.69,43.69,0,0,0,40.17,43.5l1.2.07c.75,0,1.5.06,2.27.06H632.75c.76,0,1.5,0,2.25-.06l1.2-.07a43.7,43.7,0,0,0,40.18-43.5V181.63A43.69,43.69,0,0,0,635,138.05Zm37.7,680.39a40.14,40.14,0,0,1-36.76,39.82c-.37,0-.75.06-1.12.07-.69,0-1.38,0-2.07,0H367.26c-.7,0-1.4,0-2.09,0-.37,0-.75,0-1.09-.07a40.13,40.13,0,0,1-36.78-39.82V181.63a39.94,39.94,0,0,1,37.79-39.9h.11c.68,0,1.37,0,2.06,0H632.75c.69,0,1.38,0,2.06,0h.06a39.93,39.93,0,0,1,37.83,39.9Z" transform="translate(-317.63 -132.01)"/><path class="cls-6" d="M672.69,181.88V818.7a39.61,39.61,0,0,1-5.22,19.63c-.31.54-.63,1.06-1,1.58-.5.77-1,1.53-1.55,2.26a41.41,41.41,0,0,1-5.14,5.77,41.52,41.52,0,0,0,5.49-20.65V820q0-.66,0-1.32V181.82q0-.67,0-1.35v-7.18a41.72,41.72,0,0,0-5.5-20.79A39.88,39.88,0,0,1,672.69,181.88Z" transform="translate(-317.63 -132.01)"/><path d="M634.68,145.41h-.17c-.58,0-1.17,0-1.76,0H367.26c-.61,0-1.21,0-1.8,0l-.18,0h-.09A36.25,36.25,0,0,0,331,181.63V818.44a36.42,36.42,0,0,0,33.39,36.15c.27,0,.58,0,.88.06h.1c.63,0,1.26.05,1.9.05H632.75c.63,0,1.25,0,1.87-.05h.11c.31,0,.62,0,.92-.06A36.41,36.41,0,0,0,669,818.44V181.63A36.24,36.24,0,0,0,634.68,145.41Zm24.66,673A26.69,26.69,0,0,1,634.89,845l-.39,0h-.4c-.45,0-.9,0-1.35,0H367.26c-.46,0-.93,0-1.38,0h-.38l-.36,0a26.71,26.71,0,0,1-24.48-26.51V181.63a26.6,26.6,0,0,1,24.83-26.54h.24l.36,0,1.17,0H632.75l1.2,0h.22a26.57,26.57,0,0,1,25.17,26.56Z" transform="translate(-317.63 -132.01)"/><path d="M590.26,155v3.48a21.16,21.16,0,0,1-21.16,21.16H430.9a21.16,21.16,0,0,1-21.16-21.16V155Z" transform="translate(-317.63 -132.01)"/><path d="M590.26,155v3.47a21.16,21.16,0,0,1-21.16,21.17H430.9a21.16,21.16,0,0,1-21.16-21.17V155Z" transform="translate(-317.63 -132.01)"/><path class="cls-7" d="M665.32,820v7.34a41.52,41.52,0,0,1-5.49,20.65A39.74,39.74,0,0,1,636,858.46c-.37,0-.75,0-1.13.06-.68,0-1.37.06-2.06.06H367.28q-1,0-2.1-.06c-.36,0-.74,0-1.08-.06-.51,0-1-.09-1.52-.16A39.66,39.66,0,0,1,340.22,848a41.61,41.61,0,0,1-5.53-20.73v-8.59a32.62,32.62,0,0,0,11.47,24.75,32.28,32.28,0,0,0,18.52,7.73c.23,0,.46,0,.69,0h.2c.56,0,1.13.05,1.71.05H632.77c.55,0,1.12,0,1.67-.05h.21c.26,0,.51,0,.76,0A32.71,32.71,0,0,0,665.32,820Z" transform="translate(-317.63 -132.01)"/><path class="cls-8" d="M672.69,181.88l0-.06a39.91,39.91,0,0,0-37.83-39.89h-.07c-.67,0-1.36,0-2.05,0H367.28c-.7,0-1.39,0-2.06,0h-.11c-.87,0-1.71.12-2.56.22a39.72,39.72,0,0,0-22.36,10.29,41.67,41.67,0,0,0-5.5,20.79v8.59a32.56,32.56,0,0,1,30.63-32.52h.18l.24,0,1.54,0H632.77l1.39,0h0l.33,0a32.55,32.55,0,0,1,30.82,31.18v-7.18a41.72,41.72,0,0,0-5.5-20.79A39.88,39.88,0,0,1,672.69,181.88Z" transform="translate(-317.63 -132.01)"/><path class="cls-9" d="M340.21,847.75a40,40,0,0,1-12.91-29.31V181.63a39.9,39.9,0,0,1,12.87-29.39,41.72,41.72,0,0,0-5.5,20.79V827A41.45,41.45,0,0,0,340.21,847.75Z" transform="translate(-317.63 -132.01)"/><path class="cls-10" d="M672.69,181.88V818.7a39.61,39.61,0,0,1-5.22,19.63c-.31.54-.63,1.06-1,1.58-.48.77-1,1.53-1.55,2.26a39.93,39.93,0,0,1-5.18,5.84l0-.07a41.52,41.52,0,0,0,5.49-20.65v-654a41.72,41.72,0,0,0-5.5-20.79A39.88,39.88,0,0,1,672.69,181.88Z" transform="translate(-317.63 -132.01)"/><rect class="cls-11" x="160.07" y="25.89" width="42.37" height="4.45" rx="1.77"/><path class="cls-12" d="M634.51,155h-.24l-.36,0c-.42,0-.81,0-1.17,0H594.43a4.42,4.42,0,0,0-4.18,4c0,.15,0,.29,0,.45v.06a21.16,21.16,0,0,1-21.14,20.16H430.89a21.16,21.16,0,0,1-21.14-20.16v-.06c0-.16,0-.3,0-.45a4.42,4.42,0,0,0-4.18-4H367.24c-.36,0-.75,0-1.17,0l-.36,0h-.24a26.6,26.6,0,0,0-24.83,26.54V818.43a26.72,26.72,0,0,0,24.48,26.51l.36,0h.38c.46,0,.92,0,1.38,0h265.5c.46,0,.92,0,1.38,0h.38l.36,0a26.72,26.72,0,0,0,24.48-26.51V181.58A26.6,26.6,0,0,0,634.51,155Z" transform="translate(-317.63 -132.01)"/></g></svg>