<svg id="Layer_1" data-name="Layer 1" xmlns="http://www.w3.org/2000/svg" xmlns:xlink="http://www.w3.org/1999/xlink" viewBox="0 0 376.3 279.4"><defs><style>.cls-1,.cls-10,.cls-14,.cls-5,.cls-6{fill:none;}.cls-2{fill:#010101;}.cls-3{opacity:0.65;}.cls-4{clip-path:url(#clip-path);}.cls-5,.cls-6{stroke:#2e2d2b;}.cls-5{stroke-linejoin:round;}.cls-10,.cls-14,.cls-6{stroke-miterlimit:10;}.cls-7{fill:#fff;}.cls-8{fill:#112b2a;}.cls-9{fill:#545457;}.cls-10{stroke:#000;stroke-width:1.1px;}.cls-11{font-size:15px;font-family:News706BT-BoldC, News706 BT;}.cls-11,.cls-12{font-weight:700;}.cls-12{font-size:6px;font-family:NewsGothicBT-Bold, NewsGoth BT;letter-spacing:0.01em;}.cls-13{letter-spacing:0.05em;}.cls-14{stroke:#fff;}</style><clipPath id="clip-path" transform="translate(-61 -248.4)"><rect class="cls-1" x="128.5" y="323.2" width="252" height="144" rx="6.4"/></clipPath></defs><rect class="cls-2" x="67.5" y="74.8" width="252" height="144" rx="6.4"/><g class="cls-3"><g class="cls-4"><line class="cls-5" x1="159" y1="113.4" x2="186.5" y2="140.9"/><polyline class="cls-6" points="113 176.2 157.5 131.8 157.5 131.8 176.6 150.9"/><line class="cls-5" x1="157" y1="135.3" x2="174.6" y2="152.9"/><line class="cls-5" x1="155" y1="137.3" x2="172.6" y2="154.9"/><line class="cls-5" x1="153" y1="139.3" x2="170.6" y2="156.9"/><line class="cls-5" x1="151" y1="141.3" x2="168.6" y2="158.8"/><line class="cls-5" x1="149.1" y1="143.3" x2="166.6" y2="160.8"/><line class="cls-5" x1="147.1" y1="145.3" x2="164.6" y2="162.8"/><line class="cls-5" x1="145.1" y1="147.2" x2="162.6" y2="164.8"/><line class="cls-5" x1="143.1" y1="149.2" x2="160.6" y2="166.8"/><line class="cls-5" x1="141.1" y1="151.2" x2="158.7" y2="168.8"/><line class="cls-5" x1="139.1" y1="153.2" x2="156.7" y2="170.8"/><line class="cls-5" x1="137.1" y1="155.2" x2="154.7" y2="172.8"/><line class="cls-5" x1="135.8" y1="157.8" x2="152.6" y2="174.7"/><line class="cls-5" x1="133.1" y1="159.2" x2="150.7" y2="176.8"/><line class="cls-5" x1="131.1" y1="161.2" x2="148.7" y2="178.7"/><line class="cls-5" x1="129.1" y1="163.2" x2="146.7" y2="180.7"/><line class="cls-5" x1="127.2" y1="165.2" x2="144.7" y2="182.7"/><line class="cls-5" x1="125.2" y1="167.1" x2="142.7" y2="184.7"/><line class="cls-5" x1="123.2" y1="169.1" x2="140.7" y2="186.7"/><line class="cls-5" x1="121.2" y1="171.1" x2="138.7" y2="188.7"/><polyline class="cls-6" points="111 174.2 157.4 127.8 178.6 148.9"/><polyline class="cls-6" points="109 172.2 157.4 123.8 180.6 146.9"/><polyline class="cls-6" points="107 170.2 157.4 119.8 182.5 144.9"/><polyline class="cls-6" points="104.9 168.2 157.4 115.8 184.5 142.9"/><line class="cls-5" x1="102.9" y1="166.2" x2="202.4" y2="66.7"/><polyline class="cls-6" points="119.2 173.1 138.3 192.2 188.7 141.8"/><polyline class="cls-6" points="117.2 175.1 138.4 196.3 190.8 143.9"/><polyline class="cls-6" points="115.2 177.1 138.4 200.3 192.8 145.9"/><line class="cls-5" x1="117.7" y1="225.2" x2="194.9" y2="148"/><line class="cls-5" x1="119.7" y1="227.3" x2="197" y2="150.1"/><line class="cls-5" x1="121.8" y1="229.4" x2="199" y2="152.1"/><line class="cls-5" x1="123.9" y1="231.4" x2="201.1" y2="154.2"/><line class="cls-5" x1="125.9" y1="233.5" x2="203.2" y2="156.3"/><line class="cls-5" x1="128" y1="235.6" x2="205.2" y2="158.3"/><line class="cls-5" x1="12.9" y1="268.7" x2="90.1" y2="191.4"/><line class="cls-5" x1="14.9" y1="270.7" x2="92.2" y2="193.5"/><line class="cls-5" x1="17" y1="272.8" x2="94.2" y2="195.6"/><line class="cls-5" x1="19" y1="274.9" x2="96.3" y2="197.6"/><line class="cls-5" x1="21.1" y1="276.9" x2="98.4" y2="199.7"/><line class="cls-5" x1="23.2" y1="279" x2="100.4" y2="201.8"/><line class="cls-5" x1="0.4" y1="256.2" x2="77.6" y2="178.9"/><line class="cls-5" x1="2.4" y1="258.2" x2="79.7" y2="181"/><line class="cls-5" x1="4.5" y1="260.3" x2="81.7" y2="183.1"/><line class="cls-5" x1="6.5" y1="262.4" x2="83.8" y2="185.1"/><line class="cls-5" x1="8.6" y1="264.4" x2="85.9" y2="187.2"/><line class="cls-5" x1="10.7" y1="266.5" x2="87.9" y2="189.3"/><line class="cls-5" x1="193.6" y1="124.6" x2="270.9" y2="47.3"/><line class="cls-5" x1="195.7" y1="126.6" x2="272.9" y2="49.4"/><line class="cls-5" x1="197.8" y1="128.7" x2="275" y2="51.4"/><line class="cls-5" x1="199.8" y1="130.8" x2="277.1" y2="53.5"/><line class="cls-5" x1="201.9" y1="132.8" x2="279.1" y2="55.6"/><line class="cls-5" x1="203.9" y1="134.9" x2="281.2" y2="57.6"/><line class="cls-5" x1="181.1" y1="112.1" x2="258.4" y2="34.8"/><line class="cls-5" x1="183.2" y1="114.1" x2="260.4" y2="36.9"/><line class="cls-5" x1="185.3" y1="116.2" x2="262.5" y2="38.9"/><line class="cls-5" x1="187.3" y1="118.3" x2="264.6" y2="41"/><line class="cls-5" x1="189.4" y1="120.3" x2="266.6" y2="43.1"/><line class="cls-5" x1="191.4" y1="122.4" x2="268.7" y2="45.1"/><line class="cls-5" x1="33.6" y1="54.2" x2="110.8" y2="131.4"/><line class="cls-5" x1="31.5" y1="56.2" x2="108.8" y2="133.5"/><line class="cls-5" x1="29.5" y1="58.3" x2="106.7" y2="135.5"/><line class="cls-5" x1="27.4" y1="60.3" x2="104.7" y2="137.6"/><line class="cls-5" x1="25.3" y1="62.4" x2="102.6" y2="139.7"/><line class="cls-5" x1="23.3" y1="64.5" x2="100.5" y2="141.7"/><line class="cls-5" x1="21.2" y1="66.5" x2="98.5" y2="143.8"/><line class="cls-5" x1="19.2" y1="68.6" x2="96.4" y2="145.9"/><line class="cls-5" x1="17.1" y1="70.7" x2="94.3" y2="147.9"/><line class="cls-5" x1="15" y1="72.7" x2="92.3" y2="150"/><line class="cls-5" x1="12.9" y1="74.8" x2="90.2" y2="152.1"/><line class="cls-5" x1="194.8" y1="192.5" x2="233.5" y2="231.1"/><line class="cls-5" x1="197.1" y1="190.3" x2="235.7" y2="228.9"/><line class="cls-5" x1="199.3" y1="188" x2="237.9" y2="226.7"/><line class="cls-5" x1="201.6" y1="185.8" x2="240.2" y2="224.4"/><line class="cls-5" x1="203.8" y1="183.6" x2="242.4" y2="222.2"/><line class="cls-5" x1="206.4" y1="135.5" x2="228.3" y2="157.4"/><line class="cls-5" x1="208.6" y1="133.3" x2="230.5" y2="155.2"/><line class="cls-5" x1="210.8" y1="131.1" x2="232.7" y2="153"/><line class="cls-5" x1="213" y1="128.9" x2="234.9" y2="150.8"/><line class="cls-5" x1="215.2" y1="126.7" x2="237.1" y2="148.6"/><line class="cls-5" x1="217.4" y1="124.5" x2="239.3" y2="146.4"/><line class="cls-5" x1="219.6" y1="122.4" x2="241.4" y2="144.2"/><line class="cls-5" x1="221.8" y1="120.2" x2="243.6" y2="142"/><line class="cls-5" x1="224" y1="118" x2="245.8" y2="139.8"/><line class="cls-5" x1="226.1" y1="115.8" x2="248" y2="137.6"/><line class="cls-5" x1="228.3" y1="113.6" x2="250.2" y2="135.5"/><line class="cls-5" x1="230.5" y1="111.4" x2="252.4" y2="133.3"/><line class="cls-5" x1="232.7" y1="109.2" x2="254.6" y2="131.1"/><line class="cls-5" x1="234.9" y1="107" x2="256.8" y2="128.9"/><line class="cls-5" x1="237.1" y1="104.8" x2="259" y2="126.7"/><line class="cls-5" x1="239.3" y1="102.6" x2="261.2" y2="124.5"/><line class="cls-5" x1="241.5" y1="100.4" x2="263.4" y2="122.3"/><line class="cls-5" x1="243.7" y1="98.2" x2="265.6" y2="120.1"/><line class="cls-5" x1="245.9" y1="96" x2="267.8" y2="117.9"/><line class="cls-5" x1="248.1" y1="93.8" x2="270" y2="115.7"/><line class="cls-5" x1="250.3" y1="91.6" x2="272.2" y2="113.5"/><line class="cls-5" x1="252.5" y1="89.4" x2="274.4" y2="111.3"/><line class="cls-5" x1="254.7" y1="87.2" x2="276.6" y2="109.1"/><line class="cls-5" x1="256.9" y1="85" x2="278.8" y2="106.9"/><line class="cls-5" x1="259.1" y1="82.8" x2="281" y2="104.7"/><line class="cls-5" x1="206" y1="181.3" x2="244.6" y2="220"/><line class="cls-5" x1="208.3" y1="179.1" x2="246.9" y2="217.7"/><line class="cls-5" x1="210.5" y1="176.9" x2="249.1" y2="215.5"/><line class="cls-5" x1="212.7" y1="174.6" x2="256.5" y2="218.4"/><line class="cls-5" x1="192.8" y1="194.6" x2="231.4" y2="233.2"/><line class="cls-5" x1="190.7" y1="196.6" x2="229.3" y2="235.3"/><line class="cls-5" x1="188.7" y1="198.7" x2="227.3" y2="237.3"/><line class="cls-5" x1="186.6" y1="200.8" x2="225.2" y2="239.4"/><line class="cls-5" x1="184.5" y1="202.8" x2="223.2" y2="241.4"/><line class="cls-5" x1="182.5" y1="204.9" x2="221.1" y2="243.5"/><line class="cls-5" x1="180.4" y1="207" x2="219" y2="245.6"/><line class="cls-5" x1="178.3" y1="209" x2="217" y2="247.7"/><line class="cls-5" x1="176.3" y1="211.1" x2="214.9" y2="249.7"/><line class="cls-5" x1="174.2" y1="213.2" x2="212.8" y2="251.8"/><line class="cls-5" x1="297.3" y1="176.7" x2="336" y2="215.3"/><line class="cls-5" x1="299.6" y1="174.5" x2="338.2" y2="213.1"/><line class="cls-5" x1="301.8" y1="172.2" x2="340.4" y2="210.9"/><line class="cls-5" x1="304" y1="170" x2="342.7" y2="208.6"/><line class="cls-5" x1="306.3" y1="167.8" x2="344.9" y2="206.4"/><line class="cls-5" x1="308.4" y1="165.6" x2="347" y2="204.2"/><line class="cls-5" x1="310.5" y1="163.5" x2="349.2" y2="202.1"/><line class="cls-5" x1="312.7" y1="161.3" x2="351.3" y2="200"/><line class="cls-5" x1="314.8" y1="159.2" x2="353.5" y2="197.8"/><line class="cls-5" x1="295.3" y1="178.8" x2="333.9" y2="217.4"/><line class="cls-5" x1="293.2" y1="180.8" x2="331.8" y2="219.4"/><line class="cls-5" x1="291.1" y1="182.9" x2="329.8" y2="221.5"/><line class="cls-5" x1="289.1" y1="185" x2="327.7" y2="223.6"/><line class="cls-5" x1="287" y1="187" x2="325.6" y2="225.6"/><line class="cls-5" x1="284.9" y1="189.1" x2="323.6" y2="227.7"/><line class="cls-5" x1="282.9" y1="191.2" x2="321.5" y2="229.8"/><line class="cls-5" x1="280.8" y1="193.2" x2="319.4" y2="231.8"/><line class="cls-5" x1="278.7" y1="195.3" x2="317.4" y2="233.9"/><line class="cls-5" x1="276.7" y1="197.4" x2="315.3" y2="236"/><polyline class="cls-6" points="113.9 224.7 136.1 202.4 65.8 132.1"/><polyline class="cls-6" points="109.8 224.7 132.1 202.4 61.8 132.1"/><polyline class="cls-6" points="105.8 224.7 128.1 202.4 57.8 132.1"/><polyline class="cls-6" points="101.8 224.7 124.1 202.4 53.7 132.1"/><polyline class="cls-6" points="97.8 224.7 120 202.4 49.7 132.1"/><polyline class="cls-6" points="93.7 224.7 116 202.4 45.7 132.1"/><polyline class="cls-6" points="89.7 224.7 112 202.4 41.7 132.1"/><polyline class="cls-6" points="85.7 224.7 107.9 202.4 37.6 132.1"/><polyline class="cls-6" points="81.7 224.7 103.9 202.4 33.6 132.1"/><polyline class="cls-6" points="135.1 232.7 208.7 159.2 161 111.4 238.2 34.2"/><polyline class="cls-6" points="139.2 232.7 212.8 159.2 165.1 111.4 242.4 34.2"/><polyline class="cls-6" points="143.3 232.7 216.9 159.2 169.2 111.4 246.5 34.2"/><polyline class="cls-6" points="147.5 232.7 221.1 159.2 173.3 111.4 250.6 34.2"/><polyline class="cls-6" points="151.6 232.7 225.2 159.2 177.5 111.4 254.7 34.2"/><line class="cls-5" x1="100.9" y1="164.2" x2="200.4" y2="64.7"/><line class="cls-5" x1="98.9" y1="162.1" x2="198.3" y2="62.7"/><line class="cls-5" x1="96.9" y1="160.1" x2="196.3" y2="60.7"/><line class="cls-5" x1="94.9" y1="158.1" x2="194.3" y2="58.7"/><line class="cls-5" x1="92.9" y1="156.1" x2="192.3" y2="56.7"/><line class="cls-5" x1="90.9" y1="154.1" x2="190.3" y2="54.6"/><polyline class="cls-6" points="187.4 53.5 112.3 128.6 70.2 86.5"/><polyline class="cls-6" points="187.4 49.1 112.3 124.2 70.2 82.1"/><polyline class="cls-6" points="187.4 44.7 112.3 119.8 70.2 77.7"/><polyline class="cls-6" points="187.4 40.3 112.3 115.3 70.2 73.2"/><polyline class="cls-6" points="187.4 35.8 112.3 110.9 70.2 68.8"/><polyline class="cls-6" points="187.4 31.4 112.3 106.5 70.2 64.4"/><polyline class="cls-6" points="187.4 27 112.3 102.1 70.2 60"/><polyline class="cls-6" points="187.4 22.6 112.3 97.7 70.2 55.6"/><polyline class="cls-6" points="187.4 18.2 112.3 93.2 70.2 51.1"/><polyline class="cls-6" points="187.4 13.7 112.3 88.8 70.2 46.7"/><polyline class="cls-6" points="187.4 9.3 112.3 84.4 70.2 42.3"/><line class="cls-5" x1="339.1" y1="106.7" x2="261.8" y2="184"/><line class="cls-5" x1="337" y1="104.7" x2="259.8" y2="181.9"/><line class="cls-5" x1="335" y1="102.6" x2="257.7" y2="179.9"/><line class="cls-5" x1="332.9" y1="100.5" x2="255.6" y2="177.8"/><line class="cls-5" x1="330.8" y1="98.5" x2="253.6" y2="175.7"/><line class="cls-5" x1="328.8" y1="96.4" x2="251.5" y2="173.7"/><line class="cls-5" x1="351.6" y1="119.2" x2="274.3" y2="196.5"/><line class="cls-5" x1="349.5" y1="117.2" x2="272.3" y2="194.4"/><line class="cls-5" x1="347.5" y1="115.1" x2="270.2" y2="192.4"/><line class="cls-5" x1="345.4" y1="113" x2="268.1" y2="190.3"/><line class="cls-5" x1="343.3" y1="111" x2="266.1" y2="188.2"/><line class="cls-5" x1="341.3" y1="108.9" x2="264" y2="186.2"/><polyline class="cls-6" points="283.4 105.4 215.8 173 286.1 243.3"/><polyline class="cls-6" points="285.5 107.3 219.8 173 290.1 243.3"/><polyline class="cls-6" points="287.4 109.4 223.9 173 294.2 243.3"/><polyline class="cls-6" points="289.5 111.4 227.9 173 298.2 243.3"/><polyline class="cls-6" points="291.4 113.5 231.9 173 302.2 243.3"/><polyline class="cls-6" points="293.3 115.6 235.9 173 306.2 243.3"/><polyline class="cls-6" points="295.2 117.7 240 173 310.3 243.3"/><polyline class="cls-6" points="297.2 119.8 244 173 314.3 243.3"/><polyline class="cls-6" points="299.4 121.6 248 173 318.3 243.3"/><polyline class="cls-6" points="375.9 44.6 300.9 119.6 258.7 77.5"/><polyline class="cls-6" points="375.9 40.1 300.9 115.2 258.7 73.1"/><polyline class="cls-6" points="375.9 35.7 300.9 110.8 258.7 68.7"/><polyline class="cls-6" points="375.9 31.3 300.9 106.4 258.7 64.3"/><polyline class="cls-6" points="375.9 26.9 300.9 102 258.7 59.8"/><polyline class="cls-6" points="375.9 22.5 300.9 97.5 258.7 55.4"/><polyline class="cls-6" points="375.9 18 300.9 93.1 258.7 51"/><polyline class="cls-6" points="375.9 13.6 300.9 88.7 258.7 46.6"/><polyline class="cls-6" points="375.9 9.2 300.9 84.3 258.7 42.2"/><polyline class="cls-6" points="375.9 4.8 300.9 79.9 258.7 37.7"/><polyline class="cls-6" points="375.9 0.4 300.9 75.4 258.7 33.3"/></g></g><path class="cls-7" d="M193.5,74.8H313.1a6.4,6.4,0,0,1,6.4,6.4V212.4a6.4,6.4,0,0,1-6.4,6.4H193.5a0,0,0,0,1,0,0V74.8A0,0,0,0,1,193.5,74.8Z"/><rect class="cls-8" x="185.1" y="144.7" height="1"/><path class="cls-9" d="M281.1,455.1" transform="translate(-61 -248.4)"/><path class="cls-7" d="M152.8,380v30.4H206V380Zm20.9,25.3-6.8-6.8-1.4,1.4,4.4,4.4-1,1-4.4-4.4-1.4,1.4,2,2-.9,1-2.1-2-2,2-1-1,9.2-9.1-1.4-1.4-6.8,6.8-1-1,6.9-6.8-1.5-1.4-4.4,4.4-1-1,4.5-4.4-4.5-4.4,1-.9,10.1,10.1-2.3,2.3,6.8,6.8Zm4.7-4.8L163.9,386l1-.9,14.5,14.5Zm0-4.7-9.7-9.8.9-.9,9.8,9.7Zm0-4.8-5-5,1-.9,5,5Zm21,9.5a6,6,0,0,1-1.2,4,4.1,4.1,0,0,1-3.4,1.3,4.4,4.4,0,0,1-3.2-1.1,4.5,4.5,0,0,1-1.2-3.4v-9.6h-2v-1.3a6.2,6.2,0,0,0,5.1-5.9h1.3v5.8h3.9v1.4h-3.9v9a2.4,2.4,0,0,0,.4,1.6,1.4,1.4,0,0,0,1.1.6,1.8,1.8,0,0,0,1.3-.6,4.8,4.8,0,0,0,.4-1.8v-.4h1.4Z" transform="translate(-61 -248.4)"/><path class="cls-7" d="M222.8,395.8a31.7,31.7,0,0,0,31.7,31.7V364A31.8,31.8,0,0,0,222.8,395.8Z" transform="translate(-61 -248.4)"/><path class="cls-10" d="M254.5,363.3A32.4,32.4,0,0,1,287,395.7h0a32.4,32.4,0,0,1-32.5,32.4" transform="translate(-61 -248.4)"/><path class="cls-10" d="M254.5,353.4a42.4,42.4,0,0,1,42.4,42.3h0a42.3,42.3,0,0,1-42.4,42.3" transform="translate(-61 -248.4)"/><path class="cls-10" d="M352.3,376.6s9.3,18.6,0,37.2" transform="translate(-61 -248.4)"/><path class="cls-10" d="M344.5,381.2s6.2,12.4,0,27.9" transform="translate(-61 -248.4)"/><path class="cls-10" d="M335.2,384.3s6.2,9.3,0,21.7l-15.5-15.5s-3.1,6.2,0,12.4" transform="translate(-61 -248.4)"/><text class="cls-11" transform="translate(169.7 154.3)">Tapme</text><text class="cls-12" transform="translate(169.7 140.9)">P<tspan class="cls-13" x="3.9" y="0">owerd by</tspan></text><path class="cls-14" d="M322.6,455.2H147.4a6.4,6.4,0,0,1-6.4-6.4V341.6a6.4,6.4,0,0,1,6.4-6.4H361.7a6.3,6.3,0,0,1,6.3,6.4V441.7" transform="translate(-61 -248.4)"/><path class="cls-2" d="M361.7,334.7H254.5v1H361.7a5.8,5.8,0,0,1,5.8,5.9V448.8a5.9,5.9,0,0,1-5.8,5.9H254.5v1H361.7a6.9,6.9,0,0,0,6.8-6.9V341.6A6.9,6.9,0,0,0,361.7,334.7Z" transform="translate(-61 -248.4)"/></svg>